Exo-LightItalic.ufo
<glyph name="period" format="1">
  <advance width="189"/>
  <unicode hex="002E"/>
  <note>
    GF Latin Plus glyph
  </note>
  <outline>
    <contour>
      <point x="67" y="14" type="line" smooth="yes"/>
      <point x="67" y="13"/>
      <point x="67" y="12"/>
      <point x="67" y="11" type="curve" smooth="yes"/>
      <point x="67" y="4"/>
      <point x="72" y="0"/>
      <point x="79" y="0" type="curve" smooth="yes"/>
      <point x="111" y="0" type="line" smooth="yes"/>
      <point x="119" y="0"/>
      <point x="126" y="4"/>
      <point x="127" y="14" type="curve" smooth="yes"/>
      <point x="139" y="87" type="line" smooth="yes"/>
      <point x="139" y="88"/>
      <point x="139" y="89"/>
      <point x="139" y="91" type="curve" smooth="yes"/>
      <point x="139" y="97"/>
      <point x="136" y="101"/>
      <point x="127" y="101" type="curve" smooth="yes"/>
      <point x="96" y="101" type="line" smooth="yes"/>
      <point x="86" y="101"/>
      <point x="80" y="96"/>
      <point x="79" y="87" type="curve" smooth="yes"/>
    </contour>
  </outline>
</glyph>
<glyph name="zero" format="1">
  <advance width="658"/>
  <unicode hex="0030"/>
  <note>
    GF Latin Plus glyph
  </note>
  <outline>
    <contour>
      <point x="169" y="175" type="curve" smooth="yes"/>
      <point x="230" y="564" type="line" smooth="yes"/>
      <point x="243" y="643"/>
      <point x="300" y="688"/>
      <point x="378" y="688" type="curve" smooth="yes"/>
      <point x="500" y="688" type="line" smooth="yes"/>
      <point x="572" y="688"/>
      <point x="608" y="656"/>
      <point x="608" y="594" type="curve" smooth="yes"/>
      <point x="608" y="585"/>
      <point x="608" y="575"/>
      <point x="606" y="564" type="curve" smooth="yes"/>
      <point x="545" y="175" type="line" smooth="yes"/>
      <point x="532" y="98"/>
      <point x="488" y="51"/>
      <point x="398" y="51" type="curve" smooth="yes"/>
      <point x="279" y="51" type="line" smooth="yes"/>
      <point x="209" y="51"/>
      <point x="166" y="84"/>
      <point x="166" y="147" type="curve" smooth="yes"/>
      <point x="166" y="156"/>
      <point x="167" y="165"/>
    </contour>
    <contour>
      <point x="110" y="169" type="line" smooth="yes"/>
      <point x="108" y="155"/>
      <point x="107" y="142"/>
      <point x="107" y="130" type="curve" smooth="yes"/>
      <point x="107" y="37"/>
      <point x="173" y="-1"/>
      <point x="261" y="-1" type="curve" smooth="yes"/>
      <point x="401" y="-1" type="line" smooth="yes"/>
      <point x="505" y="-1"/>
      <point x="582" y="49"/>
      <point x="602" y="169" type="curve" smooth="yes"/>
      <point x="664" y="568" type="line" smooth="yes"/>
      <point x="667" y="582"/>
      <point x="668" y="596"/>
      <point x="668" y="608" type="curve" smooth="yes"/>
      <point x="668" y="687"/>
      <point x="624" y="740"/>
      <point x="519" y="740" type="curve" smooth="yes"/>
      <point x="379" y="740" type="line" smooth="yes"/>
      <point x="277" y="740"/>
      <point x="191" y="682"/>
      <point x="173" y="568" type="curve" smooth="yes"/>
    </contour>
  </outline>
</glyph>
<glyph name="three" format="1">
  <advance width="587"/>
  <unicode hex="0033"/>
  <note>
    GF Latin Plus glyph
  </note>
  <outline>
    <contour>
      <point x="181" y="688" type="line"/>
      <point x="392" y="688" type="line" smooth="yes"/>
      <point x="481" y="688"/>
      <point x="530" y="652"/>
      <point x="530" y="586" type="curve" smooth="yes"/>
      <point x="530" y="578"/>
      <point x="529" y="570"/>
      <point x="519" y="504" type="curve" smooth="yes"/>
      <point x="507" y="430"/>
      <point x="449" y="400"/>
      <point x="374" y="397" type="curve" smooth="yes"/>
      <point x="183" y="390" type="line"/>
      <point x="177" y="351" type="line"/>
      <point x="361" y="344" type="line" smooth="yes"/>
      <point x="422" y="342"/>
      <point x="489" y="317"/>
      <point x="489" y="246" type="curve" smooth="yes"/>
      <point x="489" y="238"/>
      <point x="485" y="210"/>
      <point x="478" y="172" type="curve" smooth="yes"/>
      <point x="459" y="72"/>
      <point x="385" y="46"/>
      <point x="298" y="46" type="curve" smooth="yes"/>
      <point x="53" y="46" type="line"/>
      <point x="46" y="4" type="line"/>
      <point x="109" y="-2"/>
      <point x="201" y="-6"/>
      <point x="306" y="-6" type="curve" smooth="yes"/>
      <point x="434" y="-6"/>
      <point x="517" y="53"/>
      <point x="535" y="165" type="curve" smooth="yes"/>
      <point x="541" y="207"/>
      <point x="547" y="237"/>
      <point x="547" y="250" type="curve" smooth="yes"/>
      <point x="547" y="330"/>
      <point x="480" y="363"/>
      <point x="445" y="371" type="curve"/>
      <point x="482" y="377"/>
      <point x="561" y="408"/>
      <point x="577" y="505" type="curve" smooth="yes"/>
      <point x="589" y="582"/>
      <point x="589" y="594"/>
      <point x="589" y="604" type="curve" smooth="yes"/>
      <point x="589" y="689"/>
      <point x="536" y="740"/>
      <point x="418" y="740" type="curve" smooth="yes"/>
      <point x="320" y="740"/>
      <point x="244" y="736"/>
      <point x="188" y="730" type="curve"/>
    </contour>
  </outline>
</glyph>
<glyph name="D" format="1">
  <advance width="670"/>
  <unicode hex="0044"/>
  <note>
    GF Latin Plus glyph
  </note>
  <outline>
    <contour>
      <point x="141" y="52" type="line"/>
      <point x="241" y="682" type="line"/>
      <point x="438" y="682" type="line" smooth="yes"/>
      <point x="576" y="682"/>
      <point x="616" y="612"/>
      <point x="616" y="480" type="curve" smooth="yes"/>
      <point x="616" y="449"/>
      <point x="612" y="410"/>
      <point x="605" y="366" type="curve" smooth="yes"/>
      <point x="578" y="193"/>
      <point x="506" y="52"/>
      <point x="343" y="52" type="curve" smooth="yes"/>
    </contour>
    <contour>
      <point x="75" y="0" type="line"/>
      <point x="339" y="0" type="line" smooth="yes"/>
      <point x="536" y="0"/>
      <point x="630" y="147"/>
      <point x="662" y="353" type="curve" smooth="yes"/>
      <point x="669" y="393"/>
      <point x="674" y="437"/>
      <point x="674" y="479" type="curve" smooth="yes"/>
      <point x="674" y="643"/>
      <point x="620" y="734"/>
      <point x="451" y="734" type="curve" smooth="yes"/>
      <point x="191" y="734" type="line"/>
    </contour>
    <contour>
      <point x="425" y="810" type="move" name="top"/>
    </contour>
    <contour>
      <point x="273" y="-150" type="move" name="bottom"/>
    </contour>
  </outline>
</glyph>
<glyph name="M" format="1">
  <advance width="797"/>
  <unicode hex="004D"/>
  <note>
    GF Latin Plus glyph
  </note>
  <outline>
    <contour>
      <point x="63" y="0" type="line"/>
      <point x="121" y="0" type="line"/>
      <point x="288" y="624" type="line"/>
      <point x="385" y="0" type="line"/>
      <point x="439" y="0" type="line"/>
      <point x="734" y="626" type="line"/>
      <point x="705" y="0" type="line"/>
      <point x="762" y="0" type="line"/>
      <point x="793" y="734" type="line"/>
      <point x="739" y="734" type="line"/>
      <point x="424" y="84" type="line"/>
      <point x="317" y="734" type="line"/>
      <point x="263" y="734" type="line"/>
    </contour>
    <contour>
      <point x="529" y="810" type="move" name="top"/>
    </contour>
    <contour>
      <point x="377" y="-150" type="move" name="bottom"/>
    </contour>
  </outline>
</glyph>
<glyph name="O" format="1">
  <advance width="683"/>
  <unicode hex="004F"/>
  <note>
    GF Latin Plus glyph
  </note>
  <outline>
    <contour>
      <point x="164" y="209" type="curve" smooth="yes"/>
      <point x="164" y="249"/>
      <point x="170" y="301"/>
      <point x="180" y="363" type="curve" smooth="yes"/>
      <point x="222" y="634"/>
      <point x="297" y="688"/>
      <point x="450" y="688" type="curve" smooth="yes"/>
      <point x="566" y="688"/>
      <point x="633" y="661"/>
      <point x="633" y="518" type="curve" smooth="yes"/>
      <point x="633" y="477"/>
      <point x="628" y="424"/>
      <point x="618" y="361" type="curve" smooth="yes"/>
      <point x="575" y="99"/>
      <point x="506" y="47"/>
      <point x="350" y="47" type="curve" smooth="yes"/>
      <point x="223" y="47"/>
      <point x="164" y="74"/>
    </contour>
    <contour>
      <point x="106" y="207" type="curve" smooth="yes"/>
      <point x="106" y="30"/>
      <point x="193" y="-6"/>
      <point x="339" y="-6" type="curve" smooth="yes"/>
      <point x="528" y="-6"/>
      <point x="628" y="52"/>
      <point x="676" y="350" type="curve" smooth="yes"/>
      <point x="686" y="416"/>
      <point x="691" y="473"/>
      <point x="691" y="518" type="curve" smooth="yes"/>
      <point x="691" y="697"/>
      <point x="601" y="740"/>
      <point x="460" y="740" type="curve" smooth="yes"/>
      <point x="265" y="740"/>
      <point x="169" y="672"/>
      <point x="122" y="374" type="curve" smooth="yes"/>
      <point x="111" y="309"/>
      <point x="106" y="253"/>
    </contour>
    <contour>
      <point x="473" y="810" type="move" name="top"/>
    </contour>
    <contour>
      <point x="418" y="0" type="move" name="ogonek"/>
    </contour>
    <contour>
      <point x="321" y="-150" type="move" name="bottom"/>
    </contour>
  </outline>
</glyph>
<glyph name="bracketleft" format="1">
  <advance width="330"/>
  <unicode hex="005B"/>
  <note>
    GF Latin Plus glyph
  </note>
  <outline>
    <contour>
      <point x="97" y="-28" type="line" smooth="yes"/>
      <point x="95" y="-43"/>
      <point x="93" y="-61"/>
      <point x="93" y="-79" type="curve" smooth="yes"/>
      <point x="93" y="-142"/>
      <point x="115" y="-210"/>
      <point x="217" y="-210" type="curve" smooth="yes"/>
      <point x="275" y="-210" type="line"/>
      <point x="282" y="-162" type="line"/>
      <point x="236" y="-162" type="line" smooth="yes"/>
      <point x="176" y="-162"/>
      <point x="152" y="-123"/>
      <point x="152" y="-66" type="curve" smooth="yes"/>
      <point x="152" y="-54"/>
      <point x="154" y="-40"/>
      <point x="155" y="-26" type="curve" smooth="yes"/>
      <point x="264" y="658" type="line" smooth="yes"/>
      <point x="279" y="755"/>
      <point x="327" y="794"/>
      <point x="387" y="794" type="curve" smooth="yes"/>
      <point x="433" y="794" type="line"/>
      <point x="441" y="842" type="line"/>
      <point x="383" y="842" type="line" smooth="yes"/>
      <point x="258" y="842"/>
      <point x="219" y="738"/>
      <point x="207" y="664" type="curve" smooth="yes"/>
    </contour>
  </outline>
</glyph>
<glyph name="b" format="1">
  <advance width="567"/>
  <unicode hex="0062"/>
  <note>
    GF Latin Plus glyph
  </note>
  <outline>
    <contour>
      <point x="146" y="93" type="curve"/>
      <point x="200" y="440" type="line"/>
      <point x="262" y="469"/>
      <point x="326" y="490"/>
      <point x="386" y="490" type="curve" smooth="yes"/>
      <point x="453" y="490"/>
      <point x="504" y="453"/>
      <point x="504" y="354" type="curve" smooth="yes"/>
      <point x="504" y="329"/>
      <point x="501" y="298"/>
      <point x="496" y="263" type="curve" smooth="yes"/>
      <point x="473" y="120"/>
      <point x="417" y="43"/>
      <point x="309" y="43" type="curve" smooth="yes"/>
      <point x="239" y="43"/>
      <point x="188" y="68"/>
    </contour>
    <contour>
      <point x="73" y="0" type="line"/>
      <point x="120" y="0" type="line"/>
      <point x="140" y="55" type="line"/>
      <point x="182" y="25"/>
      <point x="255" y="-6"/>
      <point x="321" y="-6" type="curve" smooth="yes"/>
      <point x="448" y="-6"/>
      <point x="528" y="95"/>
      <point x="552" y="248" type="curve" smooth="yes"/>
      <point x="558" y="291"/>
      <point x="562" y="331"/>
      <point x="562" y="362" type="curve" smooth="yes"/>
      <point x="562" y="480"/>
      <point x="496" y="539"/>
      <point x="402" y="539" type="curve" smooth="yes"/>
      <point x="351" y="539"/>
      <point x="271" y="518"/>
      <point x="207" y="481" type="curve"/>
      <point x="252" y="763" type="line"/>
      <point x="194" y="763" type="line"/>
    </contour>
    <contour>
      <point x="261" y="-150" type="move" name="bottom"/>
    </contour>
  </outline>
</glyph>
<glyph name="d" format="1">
  <advance width="564"/>
  <unicode hex="0064"/>
  <note>
    GF Latin Plus glyph
  </note>
  <outline>
    <contour>
      <point x="155" y="265" type="curve" smooth="yes"/>
      <point x="183" y="421"/>
      <point x="225" y="490"/>
      <point x="365" y="490" type="curve" smooth="yes"/>
      <point x="424" y="490"/>
      <point x="465" y="479"/>
      <point x="505" y="457" type="curve"/>
      <point x="448" y="96" type="line"/>
      <point x="392" y="67"/>
      <point x="332" y="43"/>
      <point x="263" y="43" type="curve" smooth="yes"/>
      <point x="199" y="43"/>
      <point x="146" y="80"/>
      <point x="146" y="180" type="curve" smooth="yes"/>
      <point x="146" y="205"/>
      <point x="149" y="233"/>
    </contour>
    <contour>
      <point x="98" y="277" type="curve" smooth="yes"/>
      <point x="91" y="240"/>
      <point x="88" y="206"/>
      <point x="88" y="169" type="curve" smooth="yes"/>
      <point x="88" y="53"/>
      <point x="154" y="-6"/>
      <point x="245" y="-6" type="curve" smooth="yes"/>
      <point x="322" y="-6"/>
      <point x="396" y="28"/>
      <point x="443" y="58" type="curve"/>
      <point x="443" y="0" type="line"/>
      <point x="491" y="0" type="line"/>
      <point x="612" y="763" type="line"/>
      <point x="554" y="763" type="line"/>
      <point x="513" y="507" type="line"/>
      <point x="468" y="530"/>
      <point x="421" y="539"/>
      <point x="365" y="539" type="curve" smooth="yes"/>
      <point x="179" y="539"/>
      <point x="128" y="436"/>
    </contour>
    <contour>
      <point x="613" y="650" type="move" name="altcaron"/>
    </contour>
    <contour>
      <point x="259" y="-150" type="move" name="bottom"/>
    </contour>
  </outline>
</glyph>
<glyph name="h" format="1">
  <advance width="571"/>
  <unicode hex="0068"/>
  <note>
    GF Latin Plus glyph
  </note>
  <outline>
    <contour>
      <point x="73" y="0" type="line"/>
      <point x="131" y="0" type="line"/>
      <point x="199" y="429" type="line"/>
      <point x="267" y="468"/>
      <point x="319" y="489"/>
      <point x="396" y="489" type="curve" smooth="yes"/>
      <point x="462" y="489"/>
      <point x="500" y="463"/>
      <point x="500" y="394" type="curve" smooth="yes"/>
      <point x="500" y="382"/>
      <point x="499" y="369"/>
      <point x="496" y="354" type="curve" smooth="yes"/>
      <point x="441" y="0" type="line"/>
      <point x="499" y="0" type="line"/>
      <point x="557" y="364" type="line" smooth="yes"/>
      <point x="559" y="381"/>
      <point x="560" y="397"/>
      <point x="560" y="411" type="curve" smooth="yes"/>
      <point x="560" y="496"/>
      <point x="514" y="541"/>
      <point x="424" y="541" type="curve" smooth="yes"/>
      <point x="341" y="541"/>
      <point x="264" y="511"/>
      <point x="205" y="473" type="curve"/>
      <point x="252" y="763" type="line"/>
      <point x="194" y="763" type="line"/>
    </contour>
    <contour>
      <point x="323" y="850" type="move" name="top"/>
    </contour>
    <contour>
      <point x="259" y="-150" type="move" name="bottom"/>
    </contour>
  </outline>
</glyph>
<glyph name="i" format="1">
  <advance width="203"/>
  <unicode hex="0069"/>
  <note>
    GF Latin Plus glyph
  </note>
  <outline>
    <contour>
      <point x="171" y="648" type="line" smooth="yes"/>
      <point x="169" y="639"/>
      <point x="174" y="633"/>
      <point x="183" y="633" type="curve" smooth="yes"/>
      <point x="222" y="633" type="line" smooth="yes"/>
      <point x="230" y="633"/>
      <point x="236" y="638"/>
      <point x="238" y="648" type="curve" smooth="yes"/>
      <point x="249" y="719" type="line" smooth="yes"/>
      <point x="250" y="728"/>
      <point x="248" y="734"/>
      <point x="238" y="734" type="curve" smooth="yes"/>
      <point x="199" y="734" type="line" smooth="yes"/>
      <point x="189" y="734"/>
      <point x="184" y="729"/>
      <point x="182" y="719" type="curve" smooth="yes"/>
    </contour>
    <component base="idotless"/>
    <contour>
      <point x="121" y="0" type="move" name="ogonek"/>
    </contour>
    <contour>
      <point x="86" y="-150" type="move" name="bottom"/>
    </contour>
  </outline>
</glyph>
<glyph name="j" format="1">
  <advance width="203"/>
  <unicode hex="006A"/>
  <note>
    GF Latin Plus glyph
  </note>
  <outline>
    <contour>
      <point x="171" y="648" type="line" smooth="yes"/>
      <point x="169" y="639"/>
      <point x="174" y="633"/>
      <point x="183" y="633" type="curve" smooth="yes"/>
      <point x="222" y="633" type="line" smooth="yes"/>
      <point x="230" y="633"/>
      <point x="236" y="638"/>
      <point x="238" y="648" type="curve" smooth="yes"/>
      <point x="249" y="719" type="line" smooth="yes"/>
      <point x="250" y="728"/>
      <point x="248" y="734"/>
      <point x="238" y="734" type="curve" smooth="yes"/>
      <point x="199" y="734" type="line" smooth="yes"/>
      <point x="189" y="734"/>
      <point x="184" y="729"/>
      <point x="182" y="719" type="curve" smooth="yes"/>
    </contour>
    <component base="jdotless"/>
  </outline>
</glyph>
<glyph name="m" format="1">
  <advance width="939"/>
  <unicode hex="006D"/>
  <note>
    GF Latin Plus glyph
  </note>
  <outline>
    <contour>
      <point x="73" y="0" type="line"/>
      <point x="131" y="0" type="line"/>
      <point x="199" y="429" type="line"/>
      <point x="267" y="465"/>
      <point x="318" y="489"/>
      <point x="396" y="489" type="curve" smooth="yes"/>
      <point x="473" y="489"/>
      <point x="501" y="449"/>
      <point x="501" y="394" type="curve" smooth="yes"/>
      <point x="501" y="378"/>
      <point x="499" y="369"/>
      <point x="496" y="351" type="curve" smooth="yes"/>
      <point x="441" y="0" type="line"/>
      <point x="499" y="0" type="line"/>
      <point x="554" y="350" type="line" smooth="yes"/>
      <point x="559" y="380"/>
      <point x="560" y="402"/>
      <point x="557" y="420" type="curve"/>
      <point x="624" y="461"/>
      <point x="682" y="489"/>
      <point x="763" y="489" type="curve" smooth="yes"/>
      <point x="833" y="489"/>
      <point x="869" y="457"/>
      <point x="869" y="393" type="curve" smooth="yes"/>
      <point x="869" y="381"/>
      <point x="867" y="368"/>
      <point x="865" y="359" type="curve" smooth="yes"/>
      <point x="808" y="0" type="line"/>
      <point x="866" y="0" type="line"/>
      <point x="923" y="360" type="line" smooth="yes"/>
      <point x="926" y="374"/>
      <point x="928" y="396"/>
      <point x="928" y="411" type="curve" smooth="yes"/>
      <point x="928" y="501"/>
      <point x="877" y="541"/>
      <point x="787" y="541" type="curve" smooth="yes"/>
      <point x="707" y="541"/>
      <point x="621" y="509"/>
      <point x="556" y="460" type="curve"/>
      <point x="536" y="510"/>
      <point x="501" y="541"/>
      <point x="422" y="541" type="curve" smooth="yes"/>
      <point x="341" y="541"/>
      <point x="266" y="510"/>
      <point x="205" y="473" type="curve"/>
      <point x="202" y="533" type="line"/>
      <point x="157" y="533" type="line"/>
    </contour>
    <contour>
      <point x="565" y="650" type="move" name="top"/>
    </contour>
    <contour>
      <point x="439" y="-150" type="move" name="bottom"/>
    </contour>
  </outline>
</glyph>
<glyph name="s" format="1">
  <advance width="505"/>
  <unicode hex="0073"/>
  <note>
    GF Latin Plus glyph
  </note>
  <outline>
    <contour>
      <point x="63" y="5" type="line"/>
      <point x="100" y="-2"/>
      <point x="220" y="-6"/>
      <point x="275" y="-6" type="curve" smooth="yes"/>
      <point x="383" y="-6"/>
      <point x="455" y="26"/>
      <point x="469" y="113" type="curve" smooth="yes"/>
      <point x="477" y="162" type="line" smooth="yes"/>
      <point x="478" y="172"/>
      <point x="479" y="181"/>
      <point x="479" y="190" type="curve" smooth="yes"/>
      <point x="479" y="255"/>
      <point x="429" y="290"/>
      <point x="357" y="290" type="curve" smooth="yes"/>
      <point x="252" y="290" type="line" smooth="yes"/>
      <point x="189" y="290"/>
      <point x="163" y="302"/>
      <point x="163" y="336" type="curve" smooth="yes"/>
      <point x="163" y="344"/>
      <point x="164" y="354"/>
      <point x="167" y="371" type="curve" smooth="yes"/>
      <point x="174" y="408" type="line" smooth="yes"/>
      <point x="184" y="465"/>
      <point x="215" y="492"/>
      <point x="291" y="492" type="curve" smooth="yes"/>
      <point x="494" y="492" type="line"/>
      <point x="501" y="527" type="line"/>
      <point x="453" y="533"/>
      <point x="354" y="539"/>
      <point x="302" y="539" type="curve" smooth="yes"/>
      <point x="181" y="539"/>
      <point x="134" y="488"/>
      <point x="120" y="411" type="curve" smooth="yes"/>
      <point x="113" y="367" type="line" smooth="yes"/>
      <point x="110" y="352"/>
      <point x="109" y="338"/>
      <point x="109" y="326" type="curve" smooth="yes"/>
      <point x="109" y="266"/>
      <point x="154" y="240"/>
      <point x="242" y="240" type="curve" smooth="yes"/>
      <point x="346" y="240" type="line" smooth="yes"/>
      <point x="398" y="240"/>
      <point x="423" y="221"/>
      <point x="423" y="179" type="curve" smooth="yes"/>
      <point x="423" y="174"/>
      <point x="423" y="169"/>
      <point x="422" y="163" type="curve" smooth="yes"/>
      <point x="415" y="122" type="line" smooth="yes"/>
      <point x="405" y="61"/>
      <point x="358" y="40"/>
      <point x="287" y="40" type="curve" smooth="yes"/>
      <point x="69" y="40" type="line"/>
    </contour>
    <contour>
      <point x="349" y="650" type="move" name="top"/>
    </contour>
    <contour>
      <point x="223" y="-150" type="move" name="bottom"/>
    </contour>
  </outline>
</glyph>
<glyph name="braceleft" format="1">
  <advance width="308"/>
  <unicode hex="007B"/>
  <note>
    GF Latin Plus glyph
  </note>
  <outline>
    <contour>
      <point x="93" y="305" type="line"/>
      <point x="147" y="305"/>
      <point x="169" y="287"/>
      <point x="169" y="244" type="curve" smooth="yes"/>
      <point x="169" y="211"/>
      <point x="117" y="-41"/>
      <point x="117" y="-91" type="curve" smooth="yes"/>
      <point x="117" y="-159"/>
      <point x="150" y="-210"/>
      <point x="272" y="-210" type="curve"/>
      <point x="279" y="-164" type="line"/>
      <point x="211" y="-164"/>
      <point x="178" y="-142"/>
      <point x="178" y="-75" type="curve" smooth="yes"/>
      <point x="178" y="-38"/>
      <point x="229" y="228"/>
      <point x="229" y="257" type="curve" smooth="yes"/>
      <point x="229" y="295"/>
      <point x="204" y="328"/>
      <point x="155" y="334" type="curve"/>
      <point x="203" y="340"/>
      <point x="246" y="371"/>
      <point x="254" y="424" type="curve" smooth="yes"/>
      <point x="289" y="648" type="line" smooth="yes"/>
      <point x="309" y="773"/>
      <point x="352" y="794"/>
      <point x="431" y="794" type="curve"/>
      <point x="439" y="842" type="line"/>
      <point x="300" y="842"/>
      <point x="252" y="779"/>
      <point x="233" y="656" type="curve" smooth="yes"/>
      <point x="197" y="431" type="line" smooth="yes"/>
      <point x="189" y="377"/>
      <point x="136" y="365"/>
      <point x="102" y="362" type="curve"/>
    </contour>
  </outline>
</glyph>
<glyph name="periodcentered" format="1">
  <advance width="276"/>
  <unicode hex="00B7"/>
  <note>
    GF Latin Plus glyph
  </note>
  <outline>
    <contour>
      <point x="131" y="366" type="line" smooth="yes"/>
      <point x="130" y="358"/>
      <point x="135" y="352"/>
      <point x="143" y="352" type="curve" smooth="yes"/>
      <point x="175" y="352" type="line" smooth="yes"/>
      <point x="184" y="352"/>
      <point x="190" y="356"/>
      <point x="191" y="366" type="curve" smooth="yes"/>
      <point x="197" y="399" type="line" smooth="yes"/>
      <point x="198" y="408"/>
      <point x="195" y="414"/>
      <point x="185" y="414" type="curve" smooth="yes"/>
      <point x="153" y="414" type="line" smooth="yes"/>
      <point x="144" y="414"/>
      <point x="138" y="409"/>
      <point x="136" y="399" type="curve" smooth="yes"/>
    </contour>
  </outline>
</glyph>
<glyph name="florin" format="1">
  <advance width="609"/>
  <unicode hex="0192"/>
  <note>
    GF Latin Plus glyph
  </note>
  <outline>
    <contour>
      <point x="-7" y="-194" type="line"/>
      <point x="10" y="-200"/>
      <point x="44" y="-204"/>
      <point x="75" y="-204" type="curve" smooth="yes"/>
      <point x="187" y="-204"/>
      <point x="243" y="-122"/>
      <point x="310" y="88" type="curve" smooth="yes"/>
      <point x="413" y="410" type="line"/>
      <point x="546" y="410" type="line"/>
      <point x="559" y="454" type="line"/>
      <point x="425" y="454" type="line"/>
      <point x="462" y="565" type="line" smooth="yes"/>
      <point x="506" y="702"/>
      <point x="539" y="752"/>
      <point x="619" y="752" type="curve" smooth="yes"/>
      <point x="689" y="752" type="line"/>
      <point x="700" y="789" type="line"/>
      <point x="688" y="792"/>
      <point x="662" y="798"/>
      <point x="612" y="798" type="curve" smooth="yes"/>
      <point x="505" y="798"/>
      <point x="459" y="735"/>
      <point x="406" y="571" type="curve" smooth="yes"/>
      <point x="368" y="455" type="line"/>
      <point x="272" y="455" type="line"/>
      <point x="258" y="410" type="line"/>
      <point x="355" y="410" type="line"/>
      <point x="249" y="78" type="line" smooth="yes"/>
      <point x="192" y="-103"/>
      <point x="147" y="-158"/>
      <point x="73" y="-158" type="curve" smooth="yes"/>
      <point x="5" y="-158" type="line"/>
    </contour>
  </outline>
</glyph>
<glyph name="ring" format="1">
  <advance width="334"/>
  <unicode hex="02DA"/>
  <note>
    GF Latin Plus glyph
  </note>
  <outline>
    <contour>
      <point x="293" y="780" type="curve" smooth="yes"/>
      <point x="326" y="780"/>
      <point x="357" y="766"/>
      <point x="357" y="719" type="curve" smooth="yes"/>
      <point x="357" y="667"/>
      <point x="330" y="623"/>
      <point x="267" y="623" type="curve" smooth="yes"/>
      <point x="232" y="623"/>
      <point x="199" y="637"/>
      <point x="199" y="684" type="curve" smooth="yes"/>
      <point x="199" y="735"/>
      <point x="229" y="780"/>
    </contour>
    <contour>
      <point x="169" y="683" type="curve" smooth="yes"/>
      <point x="169" y="617"/>
      <point x="212" y="596"/>
      <point x="265" y="596" type="curve" smooth="yes"/>
      <point x="346" y="596"/>
      <point x="388" y="653"/>
      <point x="388" y="721" type="curve" smooth="yes"/>
      <point x="388" y="784"/>
      <point x="346" y="807"/>
      <point x="295" y="807" type="curve" smooth="yes"/>
      <point x="213" y="807"/>
      <point x="169" y="748"/>
    </contour>
  </outline>
</glyph>
<glyph name="pi" format="1">
  <advance width="612"/>
  <unicode hex="03C0"/>
  <outline>
    <contour>
      <point x="99" y="479" type="line"/>
      <point x="205" y="479" type="line"/>
      <point x="130" y="0" type="line"/>
      <point x="188" y="0" type="line"/>
      <point x="263" y="479" type="line"/>
      <point x="442" y="479" type="line"/>
      <point x="386" y="126" type="line" smooth="yes"/>
      <point x="384" y="111"/>
      <point x="383" y="96"/>
      <point x="383" y="84" type="curve" smooth="yes"/>
      <point x="383" y="20"/>
      <point x="415" y="-6"/>
      <point x="475" y="-6" type="curve" smooth="yes"/>
      <point x="506" y="-6"/>
      <point x="533" y="1"/>
      <point x="551" y="10" type="curve"/>
      <point x="557" y="44" type="line"/>
      <point x="499" y="44" type="line" smooth="yes"/>
      <point x="461" y="44"/>
      <point x="442" y="59"/>
      <point x="442" y="99" type="curve" smooth="yes"/>
      <point x="442" y="108"/>
      <point x="443" y="117"/>
      <point x="445" y="128" type="curve" smooth="yes"/>
      <point x="500" y="479" type="line"/>
      <point x="617" y="479" type="line"/>
      <point x="626" y="533" type="line"/>
      <point x="108" y="533" type="line"/>
    </contour>
  </outline>
</glyph>
<glyph name="Germandbls" format="1">
  <advance width="655"/>
  <unicode hex="1E9E"/>
  <note>
    GF Latin Plus glyph
  </note>
  <outline>
    <contour>
      <point x="405" y="380" type="line"/>
      <point x="663" y="684" type="line"/>
      <point x="671" y="728" type="line"/>
      <point x="599" y="683" type="line"/>
      <point x="350" y="390" type="line"/>
    </contour>
    <contour>
      <point x="343" y="340" type="line"/>
      <point x="465" y="340" type="line" smooth="yes"/>
      <point x="541" y="340"/>
      <point x="571" y="309"/>
      <point x="571" y="254" type="curve" smooth="yes"/>
      <point x="571" y="244"/>
      <point x="570" y="234"/>
      <point x="560" y="168" type="curve" smooth="yes"/>
      <point x="544" y="67"/>
      <point x="465" y="46"/>
      <point x="373" y="46" type="curve" smooth="yes"/>
      <point x="323" y="46"/>
      <point x="266" y="50"/>
      <point x="238" y="55" type="curve"/>
      <point x="231" y="7" type="line"/>
      <point x="261" y="1"/>
      <point x="338" y="-6"/>
      <point x="371" y="-6" type="curve" smooth="yes"/>
      <point x="488" y="-6"/>
      <point x="595" y="28"/>
      <point x="618" y="164" type="curve" smooth="yes"/>
      <point x="629" y="236"/>
      <point x="631" y="251"/>
      <point x="631" y="262" type="curve" smooth="yes"/>
      <point x="631" y="342"/>
      <point x="580" y="390"/>
      <point x="479" y="390" type="curve" smooth="yes"/>
      <point x="350" y="390" type="line"/>
    </contour>
    <contour>
      <point x="81" y="0" type="line"/>
      <point x="139" y="0" type="line"/>
      <point x="232" y="586" type="line" smooth="yes"/>
      <point x="242" y="651"/>
      <point x="282" y="682"/>
      <point x="340" y="682" type="curve" smooth="yes"/>
      <point x="644" y="682" type="line"/>
      <point x="671" y="728" type="line"/>
      <point x="652" y="730"/>
      <point x="378" y="734"/>
      <point x="347" y="734" type="curve" smooth="yes"/>
      <point x="262" y="735"/>
      <point x="191" y="694"/>
      <point x="174" y="585" type="curve" smooth="yes"/>
    </contour>
  </outline>
</glyph>
<glyph name="i.superior" format="1">
  <advance width="156"/>
  <unicode hex="2071"/>
  <note>
    GF Latin Plus glyph
  </note>
  <outline>
    <contour>
      <point x="170" y="755" type="line" smooth="yes"/>
      <point x="168" y="748"/>
      <point x="172" y="744"/>
      <point x="178" y="744" type="curve" smooth="yes"/>
      <point x="213" y="744" type="line" smooth="yes"/>
      <point x="219" y="744"/>
      <point x="224" y="747"/>
      <point x="225" y="755" type="curve" smooth="yes"/>
      <point x="234" y="810" type="line" smooth="yes"/>
      <point x="235" y="816"/>
      <point x="233" y="821"/>
      <point x="226" y="821" type="curve" smooth="yes"/>
      <point x="191" y="821" type="line" smooth="yes"/>
      <point x="184" y="821"/>
      <point x="179" y="817"/>
      <point x="178" y="810" type="curve" smooth="yes"/>
    </contour>
    <contour>
      <point x="209" y="672" type="line"/>
      <point x="159" y="672" type="line"/>
      <point x="97" y="280" type="line"/>
      <point x="147" y="280" type="line"/>
    </contour>
    <contour>
      <point x="140" y="280" type="move" name="ogonek"/>
    </contour>
    <contour>
      <point x="111" y="169" type="move" name="bottom"/>
    </contour>
  </outline>
</glyph>
<glyph name="fivesuperior" format="1">
  <advance width="420"/>
  <unicode hex="2075"/>
  <outline>
    <contour>
      <point x="122" y="359" type="line"/>
      <point x="168" y="354"/>
      <point x="231" y="352"/>
      <point x="293" y="352" type="curve" smooth="yes"/>
      <point x="383" y="352"/>
      <point x="453" y="390"/>
      <point x="464" y="469" type="curve" smooth="yes"/>
      <point x="476" y="541" type="line" smooth="yes"/>
      <point x="477" y="548"/>
      <point x="478" y="555"/>
      <point x="478" y="561" type="curve" smooth="yes"/>
      <point x="477" y="614"/>
      <point x="442" y="650"/>
      <point x="372" y="650" type="curve" smooth="yes"/>
      <point x="313" y="650" type="line" smooth="yes"/>
      <point x="269" y="650"/>
      <point x="238" y="632"/>
      <point x="225" y="613" type="curve"/>
      <point x="263" y="799" type="line"/>
      <point x="501" y="799" type="line"/>
      <point x="507" y="842" type="line"/>
      <point x="228" y="842" type="line"/>
      <point x="168" y="551" type="line"/>
      <point x="213" y="551" type="line"/>
      <point x="227" y="591"/>
      <point x="255" y="609"/>
      <point x="297" y="609" type="curve" smooth="yes"/>
      <point x="352" y="609" type="line" smooth="yes"/>
      <point x="403" y="609"/>
      <point x="428" y="586"/>
      <point x="428" y="550" type="curve" smooth="yes"/>
      <point x="428" y="545"/>
      <point x="428" y="539"/>
      <point x="426" y="532" type="curve" smooth="yes"/>
      <point x="417" y="475" type="line" smooth="yes"/>
      <point x="409" y="422"/>
      <point x="358" y="395"/>
      <point x="301" y="395" type="curve" smooth="yes"/>
      <point x="128" y="395" type="line"/>
    </contour>
  </outline>
</glyph>
<glyph name="eightsuperior" format="1">
  <advance width="420"/>
  <unicode hex="2078"/>
  <outline>
    <contour>
      <point x="215" y="686" type="curve" smooth="yes"/>
      <point x="222" y="734" type="line" smooth="yes"/>
      <point x="230" y="783"/>
      <point x="253" y="805"/>
      <point x="303" y="805" type="curve" smooth="yes"/>
      <point x="379" y="805" type="line" smooth="yes"/>
      <point x="414" y="805"/>
      <point x="432" y="790"/>
      <point x="432" y="757" type="curve" smooth="yes"/>
      <point x="432" y="750"/>
      <point x="432" y="741"/>
      <point x="430" y="733" type="curve" smooth="yes"/>
      <point x="422" y="685" type="line" smooth="yes"/>
      <point x="418" y="658"/>
      <point x="394" y="624"/>
      <point x="346" y="624" type="curve" smooth="yes"/>
      <point x="274" y="624" type="line" smooth="yes"/>
      <point x="232" y="624"/>
      <point x="213" y="646"/>
      <point x="213" y="673" type="curve" smooth="yes"/>
      <point x="213" y="677"/>
      <point x="214" y="681"/>
    </contour>
    <contour>
      <point x="170" y="457" type="curve" smooth="yes"/>
      <point x="180" y="519" type="line" smooth="yes"/>
      <point x="188" y="568"/>
      <point x="240" y="583"/>
      <point x="267" y="583" type="curve" smooth="yes"/>
      <point x="340" y="583" type="line" smooth="yes"/>
      <point x="387" y="583"/>
      <point x="406" y="571"/>
      <point x="406" y="538" type="curve" smooth="yes"/>
      <point x="406" y="533"/>
      <point x="406" y="527"/>
      <point x="405" y="519" type="curve" smooth="yes"/>
      <point x="394" y="456" type="line" smooth="yes"/>
      <point x="388" y="416"/>
      <point x="361" y="395"/>
      <point x="313" y="395" type="curve" smooth="yes"/>
      <point x="237" y="395" type="line" smooth="yes"/>
      <point x="199" y="395"/>
      <point x="169" y="408"/>
      <point x="169" y="443" type="curve" smooth="yes"/>
      <point x="169" y="446"/>
      <point x="169" y="452"/>
    </contour>
    <contour>
      <point x="120" y="449" type="line" smooth="yes"/>
      <point x="119" y="443"/>
      <point x="118" y="436"/>
      <point x="118" y="429" type="curve" smooth="yes"/>
      <point x="118" y="377"/>
      <point x="161" y="354"/>
      <point x="224" y="354" type="curve" smooth="yes"/>
      <point x="316" y="354" type="line" smooth="yes"/>
      <point x="383" y="354"/>
      <point x="431" y="381"/>
      <point x="442" y="449" type="curve" smooth="yes"/>
      <point x="454" y="524" type="line" smooth="yes"/>
      <point x="454" y="531"/>
      <point x="455" y="536"/>
      <point x="455" y="543" type="curve" smooth="yes"/>
      <point x="455" y="574"/>
      <point x="440" y="601"/>
      <point x="407" y="608" type="curve"/>
      <point x="443" y="618"/>
      <point x="465" y="657"/>
      <point x="470" y="688" type="curve" smooth="yes"/>
      <point x="479" y="744" type="line" smooth="yes"/>
      <point x="481" y="754"/>
      <point x="481" y="763"/>
      <point x="481" y="771" type="curve" smooth="yes"/>
      <point x="481" y="822"/>
      <point x="448" y="845"/>
      <point x="394" y="845" type="curve" smooth="yes"/>
      <point x="301" y="845" type="line" smooth="yes"/>
      <point x="239" y="845"/>
      <point x="188" y="817"/>
      <point x="176" y="744" type="curve" smooth="yes"/>
      <point x="168" y="691" type="line" smooth="yes"/>
      <point x="166" y="680"/>
      <point x="165" y="673"/>
      <point x="165" y="666" type="curve" smooth="yes"/>
      <point x="165" y="639"/>
      <point x="177" y="616"/>
      <point x="209" y="602" type="curve"/>
      <point x="181" y="595"/>
      <point x="139" y="568"/>
      <point x="131" y="523" type="curve" smooth="yes"/>
    </contour>
  </outline>
</glyph>
<glyph name="dong" format="1">
  <advance width="609"/>
  <unicode hex="20AB"/>
  <note>
    GF Latin Plus glyph
  </note>
  <outline>
    <contour>
      <point x="71" y="-31" type="line"/>
      <point x="545" y="-31" type="line"/>
      <point x="553" y="19" type="line"/>
      <point x="79" y="19" type="line"/>
    </contour>
    <contour>
      <point x="413" y="673" type="line"/>
      <point x="689" y="673" type="line"/>
      <point x="693" y="701" type="line"/>
      <point x="417" y="701" type="line"/>
    </contour>
    <contour>
      <point x="378" y="533" type="curve" smooth="yes"/>
      <point x="440" y="533"/>
      <point x="479" y="520"/>
      <point x="532" y="505" type="curve"/>
      <point x="487" y="220" type="line"/>
      <point x="438" y="197"/>
      <point x="380" y="171"/>
      <point x="312" y="171" type="curve" smooth="yes"/>
      <point x="224" y="171"/>
      <point x="186" y="207"/>
      <point x="186" y="289" type="curve" smooth="yes"/>
      <point x="186" y="408"/>
      <point x="246" y="533"/>
    </contour>
    <contour>
      <point x="127" y="277" type="curve" smooth="yes"/>
      <point x="127" y="172"/>
      <point x="178" y="122"/>
      <point x="289" y="122" type="curve" smooth="yes"/>
      <point x="353" y="122"/>
      <point x="448" y="157"/>
      <point x="481" y="183" type="curve"/>
      <point x="485" y="128" type="line"/>
      <point x="530" y="128" type="line"/>
      <point x="634" y="783" type="line"/>
      <point x="576" y="783" type="line"/>
      <point x="539" y="546" type="line"/>
      <point x="496" y="562"/>
      <point x="434" y="579"/>
      <point x="371" y="579" type="curve" smooth="yes"/>
      <point x="201" y="579"/>
      <point x="127" y="418"/>
    </contour>
  </outline>
</glyph>
<glyph name="guarani" format="1">
  <advance width="609"/>
  <unicode hex="20B2"/>
  <note>
    GF Latin Plus glyph
  </note>
  <outline>
    <contour>
      <point x="339" y="-104" type="line"/>
      <point x="481" y="793" type="line"/>
      <point x="445" y="793" type="line"/>
      <point x="302" y="-104" type="line"/>
    </contour>
    <contour>
      <point x="101" y="196" type="curve" smooth="yes"/>
      <point x="101" y="55"/>
      <point x="153" y="-5"/>
      <point x="292" y="-5" type="curve" smooth="yes"/>
      <point x="378" y="-5"/>
      <point x="458" y="23"/>
      <point x="521" y="52" type="curve"/>
      <point x="523" y="0" type="line"/>
      <point x="561" y="0" type="line"/>
      <point x="621" y="379" type="line"/>
      <point x="567" y="379" type="line"/>
      <point x="522" y="92" type="line"/>
      <point x="467" y="71"/>
      <point x="386" y="48"/>
      <point x="319" y="48" type="curve" smooth="yes"/>
      <point x="202" y="48"/>
      <point x="156" y="89"/>
      <point x="156" y="209" type="curve" smooth="yes"/>
      <point x="156" y="399"/>
      <point x="220" y="672"/>
      <point x="431" y="672" type="curve" smooth="yes"/>
      <point x="518" y="672"/>
      <point x="616" y="663"/>
      <point x="654" y="658" type="curve"/>
      <point x="662" y="701" type="line"/>
      <point x="596" y="714"/>
      <point x="502" y="724"/>
      <point x="432" y="724" type="curve" smooth="yes"/>
      <point x="181" y="724"/>
      <point x="101" y="423"/>
    </contour>
  </outline>
</glyph>
<glyph name="literSign" format="1">
  <advance width="438"/>
  <unicode hex="2113"/>
  <outline>
    <contour>
      <point x="192" y="344" type="curve"/>
      <point x="226" y="612" type="line" smooth="yes"/>
      <point x="232" y="664"/>
      <point x="272" y="692"/>
      <point x="311" y="692" type="curve" smooth="yes"/>
      <point x="362" y="692"/>
      <point x="389" y="657"/>
      <point x="389" y="611" type="curve" smooth="yes"/>
      <point x="389" y="554"/>
      <point x="306" y="440"/>
    </contour>
    <contour>
      <point x="66" y="250" type="curve"/>
      <point x="74" y="222" type="line"/>
      <point x="85" y="227"/>
      <point x="112" y="244"/>
      <point x="125" y="255" type="curve"/>
      <point x="116" y="186" type="line" smooth="yes"/>
      <point x="113" y="164"/>
      <point x="112" y="144"/>
      <point x="112" y="127" type="curve" smooth="yes"/>
      <point x="112" y="33"/>
      <point x="152" y="0"/>
      <point x="223" y="0" type="curve" smooth="yes"/>
      <point x="319" y="0" type="line"/>
      <point x="324" y="35" type="line"/>
      <point x="253" y="44" type="line" smooth="yes"/>
      <point x="201" y="51"/>
      <point x="171" y="72"/>
      <point x="171" y="146" type="curve" smooth="yes"/>
      <point x="171" y="162"/>
      <point x="172" y="180"/>
      <point x="175" y="200" type="curve" smooth="yes"/>
      <point x="185" y="286" type="line"/>
      <point x="327" y="393"/>
      <point x="440" y="542"/>
      <point x="440" y="617" type="curve" smooth="yes"/>
      <point x="440" y="691"/>
      <point x="394" y="739"/>
      <point x="319" y="739" type="curve" smooth="yes"/>
      <point x="240" y="739"/>
      <point x="179" y="694"/>
      <point x="168" y="604" type="curve" smooth="yes"/>
      <point x="131" y="304" type="line"/>
      <point x="109" y="284"/>
      <point x="88" y="267"/>
    </contour>
  </outline>
</glyph>
<glyph name="numero" format="1">
  <advance width="1120"/>
  <unicode hex="2116"/>
  <note>
    GF Latin Plus glyph
  </note>
  <outline>
    <contour>
      <point x="97" y="0" type="line"/>
      <point x="155" y="0" type="line"/>
      <point x="254" y="624" type="line" smooth="yes"/>
      <point x="261" y="668"/>
      <point x="282" y="683"/>
      <point x="308" y="683" type="curve" smooth="yes"/>
      <point x="331" y="683"/>
      <point x="345" y="671"/>
      <point x="351" y="643" type="curve" smooth="yes"/>
      <point x="462" y="70" type="line" smooth="yes"/>
      <point x="472" y="17"/>
      <point x="505" y="-6"/>
      <point x="552" y="-6" type="curve" smooth="yes"/>
      <point x="610" y="-6"/>
      <point x="657" y="31"/>
      <point x="668" y="94" type="curve" smooth="yes"/>
      <point x="738" y="539" type="line" smooth="yes"/>
      <point x="758" y="669"/>
      <point x="828" y="697"/>
      <point x="904" y="697" type="curve" smooth="yes"/>
      <point x="1029" y="697" type="line" smooth="yes"/>
      <point x="1078" y="697"/>
      <point x="1119" y="674"/>
      <point x="1119" y="598" type="curve" smooth="yes"/>
      <point x="1119" y="516"/>
      <point x="1076" y="424"/>
      <point x="992" y="424" type="curve" smooth="yes"/>
      <point x="960" y="424" type="line" smooth="yes"/>
      <point x="913" y="424"/>
      <point x="889" y="450"/>
      <point x="889" y="526" type="curve" smooth="yes"/>
      <point x="889" y="550"/>
      <point x="892" y="578"/>
      <point x="898" y="614" type="curve"/>
      <point x="853" y="614" type="line"/>
      <point x="846" y="574"/>
      <point x="843" y="541"/>
      <point x="843" y="512" type="curve" smooth="yes"/>
      <point x="843" y="421"/>
      <point x="882" y="380"/>
      <point x="955" y="380" type="curve" smooth="yes"/>
      <point x="989" y="380" type="line" smooth="yes"/>
      <point x="1104" y="380"/>
      <point x="1167" y="502"/>
      <point x="1167" y="609" type="curve" smooth="yes"/>
      <point x="1167" y="702"/>
      <point x="1109" y="746"/>
      <point x="1038" y="746" type="curve" smooth="yes"/>
      <point x="908" y="746" type="line" smooth="yes"/>
      <point x="805" y="746"/>
      <point x="705" y="700"/>
      <point x="680" y="541" type="curve" smooth="yes"/>
      <point x="612" y="109" type="line" smooth="yes"/>
      <point x="606" y="72"/>
      <point x="586" y="50"/>
      <point x="553" y="50" type="curve" smooth="yes"/>
      <point x="535" y="50"/>
      <point x="518" y="64"/>
      <point x="514" y="86" type="curve" smooth="yes"/>
      <point x="403" y="663" type="line" smooth="yes"/>
      <point x="394" y="715"/>
      <point x="365" y="739"/>
      <point x="311" y="739" type="curve" smooth="yes"/>
      <point x="254" y="739"/>
      <point x="209" y="703"/>
      <point x="198" y="634" type="curve" smooth="yes"/>
    </contour>
  </outline>
</glyph>
<glyph name="product" format="1">
  <advance width="594"/>
  <unicode hex="220F"/>
  <outline>
    <contour>
      <point x="100" y="0" type="line"/>
      <point x="158" y="0" type="line"/>
      <point x="266" y="682" type="line"/>
      <point x="539" y="682" type="line"/>
      <point x="431" y="0" type="line"/>
      <point x="489" y="0" type="line"/>
      <point x="597" y="682" type="line"/>
      <point x="680" y="682" type="line"/>
      <point x="689" y="734" type="line"/>
      <point x="135" y="734" type="line"/>
      <point x="126" y="682" type="line"/>
      <point x="208" y="682" type="line"/>
    </contour>
  </outline>
</glyph>
<glyph name="approxequal" format="1">
  <advance width="609"/>
  <unicode hex="2248"/>
  <note>
    GF Latin Plus glyph
  </note>
  <outline>
    <contour>
      <point x="147" y="421" type="line"/>
      <point x="181" y="447"/>
      <point x="223" y="461"/>
      <point x="263" y="461" type="curve" smooth="yes"/>
      <point x="334" y="461"/>
      <point x="404" y="421"/>
      <point x="487" y="421" type="curve" smooth="yes"/>
      <point x="544" y="421"/>
      <point x="579" y="443"/>
      <point x="601" y="461" type="curve"/>
      <point x="609" y="511" type="line"/>
      <point x="585" y="491"/>
      <point x="548" y="471"/>
      <point x="493" y="471" type="curve" smooth="yes"/>
      <point x="410" y="471"/>
      <point x="349" y="511"/>
      <point x="269" y="511" type="curve" smooth="yes"/>
      <point x="229" y="511"/>
      <point x="187" y="495"/>
      <point x="155" y="471" type="curve"/>
    </contour>
    <contour>
      <point x="109" y="181" type="line"/>
      <point x="143" y="207"/>
      <point x="185" y="221"/>
      <point x="225" y="221" type="curve" smooth="yes"/>
      <point x="296" y="221"/>
      <point x="366" y="181"/>
      <point x="449" y="181" type="curve" smooth="yes"/>
      <point x="506" y="181"/>
      <point x="541" y="203"/>
      <point x="563" y="221" type="curve"/>
      <point x="571" y="271" type="line"/>
      <point x="547" y="251"/>
      <point x="510" y="231"/>
      <point x="455" y="231" type="curve" smooth="yes"/>
      <point x="372" y="231"/>
      <point x="311" y="271"/>
      <point x="231" y="271" type="curve" smooth="yes"/>
      <point x="191" y="271"/>
      <point x="149" y="255"/>
      <point x="117" y="231" type="curve"/>
    </contour>
  </outline>
</glyph>
<glyph name="fl" format="1">
  <advance width="697"/>
  <unicode hex="FB02"/>
  <note>
    GF Latin Plus glyph
  </note>
  <outline>
    <contour>
      <point x="104" y="483" type="line"/>
      <point x="188" y="483" type="line"/>
      <point x="112" y="0" type="line"/>
      <point x="170" y="0" type="line"/>
      <point x="246" y="483" type="line"/>
      <point x="418" y="483" type="line"/>
      <point x="426" y="533" type="line"/>
      <point x="254" y="533" type="line"/>
      <point x="266" y="605" type="line" smooth="yes"/>
      <point x="277" y="677"/>
      <point x="302" y="721"/>
      <point x="402" y="721" type="curve" smooth="yes"/>
      <point x="608" y="721" type="line"/>
      <point x="619" y="757" type="line"/>
      <point x="537" y="766"/>
      <point x="476" y="769"/>
      <point x="401" y="769" type="curve" smooth="yes"/>
      <point x="264" y="769"/>
      <point x="225" y="707"/>
      <point x="210" y="616" type="curve" smooth="yes"/>
      <point x="196" y="533" type="line"/>
      <point x="111" y="520" type="line"/>
    </contour>
    <contour>
      <point x="469" y="181" type="line" smooth="yes"/>
      <point x="466" y="158"/>
      <point x="462" y="131"/>
      <point x="462" y="103" type="curve" smooth="yes"/>
      <point x="462" y="37"/>
      <point x="501" y="0"/>
      <point x="575" y="0" type="curve" smooth="yes"/>
      <point x="633" y="0" type="line"/>
      <point x="640" y="41" type="line"/>
      <point x="584" y="47" type="line" smooth="yes"/>
      <point x="545" y="51"/>
      <point x="521" y="67"/>
      <point x="521" y="115" type="curve" smooth="yes"/>
      <point x="521" y="143"/>
      <point x="527" y="175"/>
      <point x="530" y="195" type="curve" smooth="yes"/>
      <point x="619" y="757" type="line"/>
      <point x="561" y="757" type="line"/>
    </contour>
  </outline>
</glyph>
<glyph name="AE.smcp" format="1">
  <advance width="772"/>
  <note>
    GF Latin Plus glyph
  </note>
  <outline>
    <contour>
      <point x="259" y="211" type="line"/>
      <point x="471" y="476" type="line"/>
      <point x="428" y="211" type="line"/>
    </contour>
    <contour>
      <point x="31" y="0" type="line"/>
      <point x="89" y="0" type="line"/>
      <point x="225" y="165" type="line"/>
      <point x="422" y="165" type="line"/>
      <point x="410" y="86" type="line" smooth="yes"/>
      <point x="400" y="8"/>
      <point x="458" y="-4"/>
      <point x="521" y="-3" type="curve" smooth="yes"/>
      <point x="532" y="-3"/>
      <point x="711" y="2"/>
      <point x="734" y="5" type="curve"/>
      <point x="741" y="46" type="line"/>
      <point x="536" y="46" type="line" smooth="yes"/>
      <point x="493" y="46"/>
      <point x="455" y="56"/>
      <point x="465" y="115" type="curve" smooth="yes"/>
      <point x="487" y="254" type="line"/>
      <point x="740" y="258" type="line"/>
      <point x="747" y="299" type="line"/>
      <point x="494" y="302" type="line"/>
      <point x="515" y="434" type="line" smooth="yes"/>
      <point x="524" y="493"/>
      <point x="529" y="511"/>
      <point x="601" y="511" type="curve" smooth="yes"/>
      <point x="814" y="511" type="line"/>
      <point x="821" y="553" type="line"/>
      <point x="797" y="555"/>
      <point x="615" y="560"/>
      <point x="600" y="560" type="curve" smooth="yes"/>
      <point x="505" y="561"/>
      <point x="454" y="530"/>
      <point x="384" y="442" type="curve" smooth="yes"/>
    </contour>
    <contour>
      <point x="519" y="650" type="move" name="top"/>
    </contour>
  </outline>
</glyph>
<glyph name="F.smcp" format="1">
  <advance width="470"/>
  <note>
    GF Latin Plus glyph
  </note>
  <outline>
    <contour>
      <point x="71" y="0" type="line"/>
      <point x="127" y="0" type="line"/>
      <point x="167" y="248" type="line"/>
      <point x="434" y="252" type="line"/>
      <point x="440" y="291" type="line"/>
      <point x="174" y="297" type="line"/>
      <point x="196" y="440" type="line" smooth="yes"/>
      <point x="205" y="491"/>
      <point x="230" y="511"/>
      <point x="278" y="511" type="curve" smooth="yes"/>
      <point x="509" y="511" type="line"/>
      <point x="516" y="553" type="line"/>
      <point x="495" y="555"/>
      <point x="300" y="560"/>
      <point x="274" y="560" type="curve" smooth="yes"/>
      <point x="215" y="561"/>
      <point x="157" y="541"/>
      <point x="143" y="448" type="curve" smooth="yes"/>
    </contour>
    <contour>
      <point x="357" y="650" type="move" name="top"/>
    </contour>
  </outline>
</glyph>
<glyph name="G.smcp" format="1">
  <advance width="541"/>
  <note>
    GF Latin Plus glyph
  </note>
  <outline>
    <contour>
      <point x="108" y="294" type="curve" smooth="yes"/>
      <point x="101" y="249"/>
      <point x="95" y="207"/>
      <point x="96" y="168" type="curve" smooth="yes"/>
      <point x="97" y="49"/>
      <point x="140" y="-5"/>
      <point x="252" y="-5" type="curve" smooth="yes"/>
      <point x="313" y="-5"/>
      <point x="403" y="25"/>
      <point x="431" y="39" type="curve"/>
      <point x="434" y="0" type="line"/>
      <point x="475" y="0" type="line"/>
      <point x="522" y="294" type="line"/>
      <point x="503" y="295"/>
      <point x="475" y="296"/>
      <point x="454" y="296" type="curve" smooth="yes"/>
      <point x="391" y="296"/>
      <point x="346" y="294"/>
      <point x="318" y="291" type="curve"/>
      <point x="312" y="251" type="line"/>
      <point x="460" y="251" type="line"/>
      <point x="432" y="76" type="line"/>
      <point x="403" y="64"/>
      <point x="321" y="44"/>
      <point x="268" y="44" type="curve" smooth="yes"/>
      <point x="187" y="44"/>
      <point x="154" y="83"/>
      <point x="153" y="168" type="curve" smooth="yes"/>
      <point x="153" y="198"/>
      <point x="156" y="235"/>
      <point x="163" y="280" type="curve" smooth="yes"/>
      <point x="187" y="435"/>
      <point x="233" y="518"/>
      <point x="356" y="518" type="curve" smooth="yes"/>
      <point x="431" y="518"/>
      <point x="493" y="510"/>
      <point x="537" y="502" type="curve"/>
      <point x="543" y="542" type="line"/>
      <point x="495" y="554"/>
      <point x="440" y="566"/>
      <point x="353" y="566" type="curve" smooth="yes"/>
      <point x="201" y="566"/>
      <point x="134" y="460"/>
    </contour>
    <contour>
      <point x="379" y="650" type="move" name="top"/>
    </contour>
    <contour>
      <point x="243" y="-150" type="move" name="bottom"/>
    </contour>
  </outline>
</glyph>
<glyph name="K.smcp" format="1">
  <advance width="501"/>
  <note>
    GF Latin Plus glyph
  </note>
  <outline>
    <contour>
      <point x="71" y="0" type="line"/>
      <point x="127" y="0" type="line"/>
      <point x="168" y="257" type="line"/>
      <point x="280" y="257" type="line"/>
      <point x="411" y="0" type="line"/>
      <point x="468" y="0" type="line"/>
      <point x="327" y="280" type="line"/>
      <point x="546" y="560" type="line"/>
      <point x="487" y="560" type="line"/>
      <point x="284" y="305" type="line"/>
      <point x="175" y="305" type="line"/>
      <point x="216" y="560" type="line"/>
      <point x="160" y="560" type="line"/>
    </contour>
    <contour>
      <point x="350" y="650" type="move" name="top"/>
    </contour>
    <contour>
      <point x="217" y="-150" type="move" name="bottom"/>
    </contour>
  </outline>
</glyph>
<glyph name="L.smcp" format="1">
  <advance width="446"/>
  <note>
    GF Latin Plus glyph
  </note>
  <outline>
    <contour>
      <point x="89" y="111" type="line" smooth="yes"/>
      <point x="87" y="101"/>
      <point x="86" y="92"/>
      <point x="87" y="81" type="curve" smooth="yes"/>
      <point x="87" y="20"/>
      <point x="127" y="0"/>
      <point x="189" y="0" type="curve" smooth="yes"/>
      <point x="414" y="0" type="line"/>
      <point x="422" y="48" type="line"/>
      <point x="206" y="48" type="line" smooth="yes"/>
      <point x="172" y="48"/>
      <point x="144" y="56"/>
      <point x="144" y="94" type="curve" smooth="yes"/>
      <point x="144" y="102"/>
      <point x="144" y="110"/>
      <point x="146" y="119" type="curve" smooth="yes"/>
      <point x="216" y="560" type="line"/>
      <point x="160" y="560" type="line"/>
    </contour>
    <contour>
      <point x="211" y="650" type="move" name="top"/>
    </contour>
    <contour>
      <point x="265" y="452" type="move" name="altcaron"/>
    </contour>
    <contour>
      <point x="209" y="-150" type="move" name="bottom"/>
    </contour>
  </outline>
</glyph>
<glyph name="M.salt" format="1">
  <advance width="828"/>
  <outline>
    <contour>
      <point x="61" y="0" type="line"/>
      <point x="117" y="0" type="line"/>
      <point x="265" y="638" type="line" smooth="yes"/>
      <point x="274" y="675"/>
      <point x="293" y="687"/>
      <point x="314" y="687" type="curve" smooth="yes"/>
      <point x="329" y="687"/>
      <point x="342" y="674"/>
      <point x="345" y="647" type="curve" smooth="yes"/>
      <point x="390" y="261" type="line" smooth="yes"/>
      <point x="394" y="220"/>
      <point x="417" y="197"/>
      <point x="452" y="197" type="curve" smooth="yes"/>
      <point x="487" y="197"/>
      <point x="519" y="217"/>
      <point x="536" y="261" type="curve" smooth="yes"/>
      <point x="693" y="648" type="line" smooth="yes"/>
      <point x="704" y="673"/>
      <point x="718" y="687"/>
      <point x="731" y="687" type="curve" smooth="yes"/>
      <point x="744" y="687"/>
      <point x="754" y="680"/>
      <point x="754" y="647" type="curve" smooth="yes"/>
      <point x="754" y="644"/>
      <point x="754" y="642"/>
      <point x="754" y="639" type="curve" smooth="yes"/>
      <point x="703" y="0" type="line"/>
      <point x="759" y="0" type="line"/>
      <point x="811" y="642" type="line" smooth="yes"/>
      <point x="811" y="648"/>
      <point x="811" y="654"/>
      <point x="811" y="660" type="curve" smooth="yes"/>
      <point x="811" y="726"/>
      <point x="785" y="743"/>
      <point x="744" y="743" type="curve" smooth="yes"/>
      <point x="704" y="743"/>
      <point x="670" y="722"/>
      <point x="650" y="664" type="curve" smooth="yes"/>
      <point x="497" y="287" type="line" smooth="yes"/>
      <point x="490" y="267"/>
      <point x="477" y="258"/>
      <point x="462" y="258" type="curve" smooth="yes"/>
      <point x="449" y="258"/>
      <point x="439" y="266"/>
      <point x="437" y="287" type="curve" smooth="yes"/>
      <point x="393" y="663" type="line" smooth="yes"/>
      <point x="388" y="715"/>
      <point x="365" y="743"/>
      <point x="319" y="743" type="curve" smooth="yes"/>
      <point x="272" y="743"/>
      <point x="228" y="718"/>
      <point x="210" y="640" type="curve" smooth="yes"/>
    </contour>
    <contour>
      <point x="536" y="810" type="move" name="top"/>
    </contour>
    <contour>
      <point x="384" y="-150" type="move" name="bottom"/>
    </contour>
  </outline>
</glyph>
<glyph name="M.smcp" format="1">
  <advance width="675"/>
  <note>
    GF Latin Plus glyph
  </note>
  <outline>
    <contour>
      <point x="60" y="0" type="line"/>
      <point x="117" y="0" type="line"/>
      <point x="243" y="461" type="line"/>
      <point x="321" y="0" type="line"/>
      <point x="374" y="0" type="line"/>
      <point x="599" y="462" type="line"/>
      <point x="580" y="0" type="line"/>
      <point x="635" y="0" type="line"/>
      <point x="655" y="560" type="line"/>
      <point x="603" y="560" type="line"/>
      <point x="359" y="73" type="line"/>
      <point x="269" y="560" type="line"/>
      <point x="217" y="560" type="line"/>
    </contour>
    <contour>
      <point x="445" y="650" type="move" name="top"/>
    </contour>
    <contour>
      <point x="318" y="-150" type="move" name="bottom"/>
    </contour>
  </outline>
</glyph>
<glyph name="N.smcp" format="1">
  <advance width="561"/>
  <note>
    GF Latin Plus glyph
  </note>
  <outline>
    <contour>
      <point x="71" y="0" type="line"/>
      <point x="127" y="0" type="line"/>
      <point x="202" y="471" type="line"/>
      <point x="446" y="0" type="line"/>
      <point x="492" y="0" type="line"/>
      <point x="581" y="560" type="line"/>
      <point x="525" y="560" type="line"/>
      <point x="450" y="90" type="line"/>
      <point x="206" y="560" type="line"/>
      <point x="160" y="560" type="line"/>
    </contour>
    <contour>
      <point x="381" y="650" type="move" name="top"/>
    </contour>
    <contour>
      <point x="251" y="-150" type="move" name="bottom"/>
    </contour>
  </outline>
</glyph>
<glyph name="Thorn.smcp" format="1">
  <advance width="466"/>
  <note>
    GF Latin Plus glyph
  </note>
  <outline>
    <contour>
      <point x="215" y="560" type="line"/>
      <point x="160" y="560" type="line"/>
      <point x="71" y="0" type="line"/>
      <point x="127" y="0" type="line"/>
    </contour>
    <contour>
      <point x="175" y="405" type="line"/>
      <point x="309" y="405" type="line" smooth="yes"/>
      <point x="368" y="405"/>
      <point x="403" y="383"/>
      <point x="404" y="326" type="curve" smooth="yes"/>
      <point x="404" y="316"/>
      <point x="402" y="296"/>
      <point x="400" y="282" type="curve" smooth="yes"/>
      <point x="386" y="199"/>
      <point x="330" y="175"/>
      <point x="269" y="175" type="curve" smooth="yes"/>
      <point x="141" y="175" type="line"/>
      <point x="135" y="136" type="line"/>
      <point x="181" y="131"/>
      <point x="227" y="127"/>
      <point x="275" y="127" type="curve" smooth="yes"/>
      <point x="351" y="127"/>
      <point x="437" y="156"/>
      <point x="456" y="278" type="curve" smooth="yes"/>
      <point x="458" y="294"/>
      <point x="461" y="317"/>
      <point x="461" y="331" type="curve" smooth="yes"/>
      <point x="460" y="424"/>
      <point x="398" y="452"/>
      <point x="319" y="452" type="curve" smooth="yes"/>
      <point x="180" y="452" type="line"/>
    </contour>
  </outline>
</glyph>
<glyph name="Uhorn.smcp" format="1">
  <advance width="569"/>
  <outline>
    <contour>
      <point x="536" y="526" type="line"/>
      <point x="567" y="526" type="line" smooth="yes"/>
      <point x="627" y="526"/>
      <point x="689" y="561"/>
      <point x="707" y="674" type="curve"/>
      <point x="663" y="674" type="line"/>
      <point x="650" y="589"/>
      <point x="612" y="560"/>
      <point x="565" y="560" type="curve" smooth="yes"/>
      <point x="541" y="560" type="line"/>
    </contour>
    <component base="U.smcp"/>
    <contour>
      <point x="379" y="650" type="move" name="top"/>
    </contour>
    <contour>
      <point x="254" y="-150" type="move" name="bottom"/>
    </contour>
  </outline>
</glyph>
<glyph name="Y.smcp" format="1">
  <advance width="516"/>
  <note>
    GF Latin Plus glyph
  </note>
  <outline>
    <contour>
      <point x="121" y="560" type="line"/>
      <point x="252" y="186" type="line"/>
      <point x="223" y="0" type="line"/>
      <point x="279" y="0" type="line"/>
      <point x="308" y="186" type="line"/>
      <point x="572" y="560" type="line"/>
      <point x="509" y="560" type="line"/>
      <point x="288" y="246" type="line"/>
      <point x="182" y="560" type="line"/>
    </contour>
    <contour>
      <point x="351" y="650" type="move" name="top"/>
    </contour>
    <contour>
      <point x="227" y="-150" type="move" name="bottom"/>
    </contour>
  </outline>
</glyph>
<glyph name="Z.smcp" format="1">
  <advance width="475"/>
  <note>
    GF Latin Plus glyph
  </note>
  <outline>
    <contour>
      <point x="45" y="0" type="line"/>
      <point x="430" y="0" type="line"/>
      <point x="438" y="48" type="line"/>
      <point x="117" y="48" type="line"/>
      <point x="503" y="515" type="line"/>
      <point x="510" y="560" type="line"/>
      <point x="134" y="560" type="line"/>
      <point x="126" y="512" type="line"/>
      <point x="438" y="512" type="line"/>
      <point x="52" y="45" type="line"/>
    </contour>
    <contour>
      <point x="331" y="650" type="move" name="top"/>
    </contour>
    <contour>
      <point x="206" y="-150" type="move" name="bottom"/>
    </contour>
  </outline>
</glyph>
<glyph name="b.salt" format="1">
  <advance width="566"/>
  <outline>
    <contour>
      <point x="139" y="43" type="line"/>
      <point x="204" y="459" type="line"/>
      <point x="275" y="477"/>
      <point x="323" y="488"/>
      <point x="387" y="488" type="curve" smooth="yes"/>
      <point x="467" y="488"/>
      <point x="500" y="443"/>
      <point x="500" y="352" type="curve" smooth="yes"/>
      <point x="500" y="221"/>
      <point x="441" y="43"/>
      <point x="309" y="43" type="curve" smooth="yes"/>
    </contour>
    <contour>
      <point x="75" y="10" type="line"/>
      <point x="127" y="-1"/>
      <point x="206" y="-6"/>
      <point x="306" y="-6" type="curve" smooth="yes"/>
      <point x="475" y="-6"/>
      <point x="559" y="181"/>
      <point x="559" y="362" type="curve" smooth="yes"/>
      <point x="559" y="471"/>
      <point x="517" y="537"/>
      <point x="404" y="537" type="curve" smooth="yes"/>
      <point x="360" y="537"/>
      <point x="272" y="523"/>
      <point x="211" y="500" type="curve"/>
      <point x="253" y="763" type="line"/>
      <point x="195" y="763" type="line"/>
    </contour>
  </outline>
</glyph>
<glyph name="braceright.smcp" format="1">
  <advance width="274"/>
  <note>
    GF Latin Plus glyph
  </note>
  <outline>
    <contour>
      <point x="13" y="-119" type="curve"/>
      <point x="7" y="-160" type="line"/>
      <point x="133" y="-160"/>
      <point x="163" y="-102"/>
      <point x="175" y="-29" type="curve" smooth="yes"/>
      <point x="205" y="162" type="line" smooth="yes"/>
      <point x="212" y="200"/>
      <point x="243" y="214"/>
      <point x="279" y="214" type="curve"/>
      <point x="287" y="264" type="line"/>
      <point x="263" y="267"/>
      <point x="228" y="274"/>
      <point x="228" y="307" type="curve" smooth="yes"/>
      <point x="228" y="327"/>
      <point x="261" y="525"/>
      <point x="261" y="540" type="curve" smooth="yes"/>
      <point x="260" y="599"/>
      <point x="228" y="642"/>
      <point x="134" y="642" type="curve"/>
      <point x="127" y="598" type="line"/>
      <point x="176" y="598"/>
      <point x="203" y="581"/>
      <point x="204" y="529" type="curve" smooth="yes"/>
      <point x="204" y="503"/>
      <point x="171" y="327"/>
      <point x="171" y="295" type="curve" smooth="yes"/>
      <point x="171" y="262"/>
      <point x="196" y="243"/>
      <point x="230" y="239" type="curve"/>
      <point x="184" y="233"/>
      <point x="156" y="207"/>
      <point x="151" y="172" type="curve" smooth="yes"/>
      <point x="120" y="-22" type="line" smooth="yes"/>
      <point x="108" y="-93"/>
      <point x="77" y="-119"/>
    </contour>
  </outline>
</glyph>
<glyph name="brevebelowcomb" format="1">
  <note>
    GF Latin Plus glyph
  </note>
  <outline>
    <contour>
      <point x="-375" y="-81" type="line"/>
      <point x="-376" y="-94"/>
      <point x="-377" y="-105"/>
      <point x="-377" y="-116" type="curve" smooth="yes"/>
      <point x="-377" y="-193"/>
      <point x="-327" y="-220"/>
      <point x="-269" y="-220" type="curve" smooth="yes"/>
      <point x="-201" y="-220"/>
      <point x="-134" y="-189"/>
      <point x="-117" y="-81" type="curve"/>
      <point x="-146" y="-81" type="line"/>
      <point x="-159" y="-163"/>
      <point x="-211" y="-191"/>
      <point x="-266" y="-191" type="curve" smooth="yes"/>
      <point x="-311" y="-191"/>
      <point x="-348" y="-168"/>
      <point x="-348" y="-109" type="curve" smooth="yes"/>
      <point x="-348" y="-101"/>
      <point x="-347" y="-91"/>
      <point x="-346" y="-81" type="curve"/>
    </contour>
    <contour>
      <point x="-269" y="-150" type="move" name="_bottom"/>
    </contour>
  </outline>
</glyph>
<glyph name="c_h" format="1">
  <advance width="1025"/>
  <outline>
    <contour>
      <point x="310" y="41" type="curve" smooth="yes"/>
      <point x="202" y="41"/>
      <point x="146" y="70"/>
      <point x="146" y="189" type="curve" smooth="yes"/>
      <point x="146" y="208"/>
      <point x="149" y="233"/>
      <point x="154" y="264" type="curve" smooth="yes"/>
      <point x="182" y="441"/>
      <point x="253" y="492"/>
      <point x="353" y="492" type="curve" smooth="yes"/>
      <point x="510" y="492" type="line"/>
      <point x="517" y="527" type="line"/>
      <point x="465" y="533"/>
      <point x="394" y="539"/>
      <point x="345" y="539" type="curve" smooth="yes"/>
      <point x="216" y="539"/>
      <point x="127" y="466"/>
      <point x="98" y="278" type="curve" smooth="yes"/>
      <point x="92" y="242"/>
      <point x="88" y="210"/>
      <point x="88" y="185" type="curve" smooth="yes"/>
      <point x="88" y="32"/>
      <point x="170" y="-6"/>
      <point x="306" y="-6" type="curve" smooth="yes"/>
      <point x="488" y="-6"/>
      <point x="592" y="48"/>
      <point x="618" y="208" type="curve" smooth="yes"/>
      <point x="653" y="429" type="line"/>
      <point x="721" y="468"/>
      <point x="773" y="489"/>
      <point x="851" y="489" type="curve" smooth="yes"/>
      <point x="916" y="489"/>
      <point x="954" y="463"/>
      <point x="954" y="394" type="curve" smooth="yes"/>
      <point x="954" y="382"/>
      <point x="953" y="369"/>
      <point x="951" y="354" type="curve" smooth="yes"/>
      <point x="895" y="0" type="line"/>
      <point x="953" y="0" type="line"/>
      <point x="1011" y="364" type="line" smooth="yes"/>
      <point x="1013" y="381"/>
      <point x="1015" y="397"/>
      <point x="1015" y="411" type="curve" smooth="yes"/>
      <point x="1015" y="496"/>
      <point x="968" y="541"/>
      <point x="879" y="541" type="curve" smooth="yes"/>
      <point x="795" y="541"/>
      <point x="718" y="511"/>
      <point x="660" y="473" type="curve"/>
      <point x="706" y="763" type="line"/>
      <point x="648" y="763" type="line"/>
      <point x="560" y="214" type="line" smooth="yes"/>
      <point x="539" y="78"/>
      <point x="464" y="41"/>
    </contour>
  </outline>
</glyph>
<glyph name="c_k" format="1">
  <advance width="969"/>
  <outline>
    <contour>
      <point x="313" y="41" type="curve" smooth="yes"/>
      <point x="202" y="41"/>
      <point x="146" y="70"/>
      <point x="146" y="189" type="curve" smooth="yes"/>
      <point x="146" y="208"/>
      <point x="149" y="233"/>
      <point x="154" y="264" type="curve" smooth="yes"/>
      <point x="182" y="441"/>
      <point x="253" y="492"/>
      <point x="353" y="492" type="curve" smooth="yes"/>
      <point x="510" y="492" type="line"/>
      <point x="517" y="527" type="line"/>
      <point x="465" y="533"/>
      <point x="394" y="539"/>
      <point x="345" y="539" type="curve" smooth="yes"/>
      <point x="216" y="539"/>
      <point x="127" y="466"/>
      <point x="98" y="278" type="curve" smooth="yes"/>
      <point x="92" y="242"/>
      <point x="88" y="210"/>
      <point x="88" y="185" type="curve" smooth="yes"/>
      <point x="88" y="32"/>
      <point x="170" y="-6"/>
      <point x="310" y="-6" type="curve" smooth="yes"/>
      <point x="476" y="-6"/>
      <point x="593" y="49"/>
      <point x="612" y="171" type="curve" smooth="yes"/>
      <point x="627" y="264" type="line"/>
      <point x="654" y="264"/>
      <point x="697" y="269"/>
      <point x="729" y="278" type="curve"/>
      <point x="879" y="0" type="line"/>
      <point x="941" y="0" type="line"/>
      <point x="780" y="295" type="line"/>
      <point x="853" y="326"/>
      <point x="927" y="390"/>
      <point x="968" y="533" type="curve"/>
      <point x="910" y="533" type="line"/>
      <point x="862" y="372"/>
      <point x="762" y="315"/>
      <point x="634" y="311" type="curve"/>
      <point x="706" y="763" type="line"/>
      <point x="648" y="763" type="line"/>
      <point x="556" y="183" type="line" smooth="yes"/>
      <point x="540" y="84"/>
      <point x="453" y="41"/>
    </contour>
  </outline>
</glyph>
<glyph name="caroncomb.alt" format="1">
  <note>
    GF Latin Plus glyph
  </note>
  <outline>
    <contour>
      <point x="72" y="569" type="line"/>
      <point x="112" y="569" type="line"/>
      <point x="142" y="722" type="line"/>
      <point x="152" y="789" type="line"/>
      <point x="97" y="789" type="line"/>
      <point x="87" y="722" type="line"/>
    </contour>
    <contour>
      <point x="38" y="650" type="move" name="_altcaron"/>
    </contour>
  </outline>
</glyph>
<glyph name="cedillacomb" format="1">
  <note>
    GF Latin Plus glyph
  </note>
  <outline>
    <component base="cedilla" xOffset="-381" yOffset="-8"/>
    <contour>
      <point x="-269" y="-150" type="move" name="_bottom"/>
    </contour>
  </outline>
</glyph>
<glyph name="circumflexcomb_gravecomb" format="1">
  <outline>
    <contour>
      <point x="-429" y="631" type="line"/>
      <point x="-392" y="631" type="line"/>
      <point x="-272" y="697" type="line"/>
      <point x="-183" y="631" type="line"/>
      <point x="-147" y="631" type="line"/>
      <point x="-246" y="726" type="line"/>
      <point x="-288" y="726" type="line"/>
    </contour>
    <contour>
      <point x="-381" y="705" type="line"/>
      <point x="-349" y="705" type="line"/>
      <point x="-429" y="836" type="line"/>
      <point x="-478" y="836" type="line"/>
    </contour>
    <contour>
      <point x="-272" y="650" type="move" name="_top"/>
    </contour>
  </outline>
</glyph>
<glyph name="circumflexcomb_tildecomb" format="1">
  <outline>
    <contour>
      <point x="-426" y="774" type="curve"/>
      <point x="-396" y="774" type="line"/>
      <point x="-391" y="806"/>
      <point x="-363" y="820"/>
      <point x="-333" y="820" type="curve" smooth="yes"/>
      <point x="-281" y="820"/>
      <point x="-245" y="774"/>
      <point x="-189" y="774" type="curve" smooth="yes"/>
      <point x="-135" y="774"/>
      <point x="-101" y="802"/>
      <point x="-91" y="853" type="curve"/>
      <point x="-121" y="853" type="line"/>
      <point x="-126" y="822"/>
      <point x="-154" y="805"/>
      <point x="-187" y="805" type="curve" smooth="yes"/>
      <point x="-236" y="805"/>
      <point x="-271" y="851"/>
      <point x="-330" y="851" type="curve" smooth="yes"/>
      <point x="-370" y="851"/>
      <point x="-415" y="835"/>
    </contour>
    <contour>
      <point x="-290" y="726" type="line"/>
      <point x="-431" y="631" type="line"/>
      <point x="-395" y="631" type="line"/>
      <point x="-275" y="697" type="line"/>
      <point x="-186" y="631" type="line"/>
      <point x="-149" y="631" type="line"/>
      <point x="-248" y="726" type="line"/>
    </contour>
    <contour>
      <point x="-284" y="650" type="move" name="_top"/>
    </contour>
  </outline>
</glyph>
<glyph name="colonsign" format="1">
  <advance width="609"/>
  <note>
    GF Latin Plus glyph
  </note>
  <outline>
    <contour>
      <point x="244" y="-110" type="line"/>
      <point x="780" y="793" type="line"/>
      <point x="743" y="793" type="line"/>
      <point x="207" y="-110" type="line"/>
    </contour>
    <contour>
      <point x="104" y="-110" type="line"/>
      <point x="640" y="793" type="line"/>
      <point x="603" y="793" type="line"/>
      <point x="67" y="-110" type="line"/>
    </contour>
    <contour>
      <point x="127" y="221" type="curve" smooth="yes"/>
      <point x="127" y="54"/>
      <point x="203" y="-6"/>
      <point x="334" y="-6" type="curve" smooth="yes"/>
      <point x="428" y="-6"/>
      <point x="510" y="8"/>
      <point x="559" y="26" type="curve"/>
      <point x="568" y="65" type="line"/>
      <point x="497" y="48"/>
      <point x="446" y="42"/>
      <point x="358" y="42" type="curve" smooth="yes"/>
      <point x="238" y="42"/>
      <point x="181" y="86"/>
      <point x="181" y="228" type="curve" smooth="yes"/>
      <point x="181" y="453"/>
      <point x="326" y="700"/>
      <point x="531" y="700" type="curve" smooth="yes"/>
      <point x="597" y="700"/>
      <point x="651" y="687"/>
      <point x="696" y="677" type="curve"/>
      <point x="717" y="714" type="line"/>
      <point x="687" y="728"/>
      <point x="629" y="750"/>
      <point x="532" y="750" type="curve" smooth="yes"/>
      <point x="300" y="750"/>
      <point x="127" y="489"/>
    </contour>
  </outline>
</glyph>
<glyph name="eight.oldstyle" format="1">
  <advance width="609"/>
  <outline>
    <contour>
      <point x="223" y="498" type="curve" smooth="yes"/>
      <point x="235" y="575" type="line" smooth="yes"/>
      <point x="247" y="654"/>
      <point x="285" y="689"/>
      <point x="363" y="689" type="curve" smooth="yes"/>
      <point x="478" y="689" type="line" smooth="yes"/>
      <point x="533" y="689"/>
      <point x="562" y="668"/>
      <point x="562" y="612" type="curve" smooth="yes"/>
      <point x="562" y="601"/>
      <point x="561" y="589"/>
      <point x="558" y="575" type="curve" smooth="yes"/>
      <point x="546" y="498" type="line" smooth="yes"/>
      <point x="540" y="454"/>
      <point x="502" y="400"/>
      <point x="426" y="400" type="curve" smooth="yes"/>
      <point x="317" y="400" type="line" smooth="yes"/>
      <point x="250" y="400"/>
      <point x="221" y="434"/>
      <point x="221" y="479" type="curve" smooth="yes"/>
      <point x="221" y="485"/>
      <point x="222" y="491"/>
    </contour>
    <contour>
      <point x="154" y="146" type="curve" smooth="yes"/>
      <point x="170" y="247" type="line" smooth="yes"/>
      <point x="182" y="324"/>
      <point x="265" y="349"/>
      <point x="308" y="349" type="curve" smooth="yes"/>
      <point x="418" y="349" type="line" smooth="yes"/>
      <point x="492" y="349"/>
      <point x="522" y="328"/>
      <point x="522" y="276" type="curve" smooth="yes"/>
      <point x="522" y="267"/>
      <point x="522" y="258"/>
      <point x="520" y="247" type="curve" smooth="yes"/>
      <point x="504" y="146" type="line" smooth="yes"/>
      <point x="494" y="82"/>
      <point x="451" y="49"/>
      <point x="375" y="49" type="curve" smooth="yes"/>
      <point x="262" y="49" type="line" smooth="yes"/>
      <point x="199" y="49"/>
      <point x="152" y="71"/>
      <point x="152" y="127" type="curve" smooth="yes"/>
      <point x="152" y="132"/>
      <point x="153" y="139"/>
    </contour>
    <contour>
      <point x="95" y="140" type="line" smooth="yes"/>
      <point x="94" y="130"/>
      <point x="93" y="120"/>
      <point x="93" y="111" type="curve" smooth="yes"/>
      <point x="93" y="32"/>
      <point x="152" y="-1"/>
      <point x="247" y="-1" type="curve" smooth="yes"/>
      <point x="378" y="-1" type="line" smooth="yes"/>
      <point x="476" y="-1"/>
      <point x="545" y="41"/>
      <point x="561" y="140" type="curve" smooth="yes"/>
      <point x="579" y="254" type="line" smooth="yes"/>
      <point x="580" y="264"/>
      <point x="581" y="273"/>
      <point x="581" y="282" type="curve" smooth="yes"/>
      <point x="581" y="330"/>
      <point x="558" y="371"/>
      <point x="507" y="380" type="curve"/>
      <point x="561" y="396"/>
      <point x="596" y="453"/>
      <point x="604" y="501" type="curve" smooth="yes"/>
      <point x="617" y="586" type="line" smooth="yes"/>
      <point x="620" y="602"/>
      <point x="621" y="616"/>
      <point x="621" y="628" type="curve" smooth="yes"/>
      <point x="621" y="707"/>
      <point x="574" y="739"/>
      <point x="495" y="739" type="curve" smooth="yes"/>
      <point x="362" y="739" type="line" smooth="yes"/>
      <point x="272" y="739"/>
      <point x="197" y="696"/>
      <point x="179" y="586" type="curve" smooth="yes"/>
      <point x="166" y="501" type="line" smooth="yes"/>
      <point x="165" y="491"/>
      <point x="164" y="481"/>
      <point x="164" y="471" type="curve" smooth="yes"/>
      <point x="164" y="430"/>
      <point x="182" y="393"/>
      <point x="229" y="371" type="curve"/>
      <point x="188" y="362"/>
      <point x="124" y="323"/>
      <point x="112" y="247" type="curve" smooth="yes"/>
    </contour>
  </outline>
</glyph>
<glyph name="eight.tnum" format="1">
  <advance width="609"/>
  <outline>
    <contour>
      <point x="220" y="498" type="curve" smooth="yes"/>
      <point x="232" y="575" type="line" smooth="yes"/>
      <point x="244" y="654"/>
      <point x="282" y="689"/>
      <point x="360" y="689" type="curve" smooth="yes"/>
      <point x="479" y="689" type="line" smooth="yes"/>
      <point x="534" y="689"/>
      <point x="563" y="668"/>
      <point x="563" y="612" type="curve" smooth="yes"/>
      <point x="563" y="601"/>
      <point x="562" y="589"/>
      <point x="560" y="575" type="curve" smooth="yes"/>
      <point x="548" y="498" type="line" smooth="yes"/>
      <point x="541" y="454"/>
      <point x="504" y="400"/>
      <point x="427" y="400" type="curve" smooth="yes"/>
      <point x="314" y="400" type="line" smooth="yes"/>
      <point x="247" y="400"/>
      <point x="219" y="434"/>
      <point x="219" y="479" type="curve" smooth="yes"/>
      <point x="219" y="485"/>
      <point x="219" y="491"/>
    </contour>
    <contour>
      <point x="151" y="146" type="curve" smooth="yes"/>
      <point x="167" y="247" type="line" smooth="yes"/>
      <point x="179" y="324"/>
      <point x="262" y="349"/>
      <point x="305" y="349" type="curve" smooth="yes"/>
      <point x="419" y="349" type="line" smooth="yes"/>
      <point x="493" y="349"/>
      <point x="524" y="328"/>
      <point x="524" y="276" type="curve" smooth="yes"/>
      <point x="524" y="267"/>
      <point x="523" y="258"/>
      <point x="521" y="247" type="curve" smooth="yes"/>
      <point x="505" y="146" type="line" smooth="yes"/>
      <point x="495" y="82"/>
      <point x="453" y="49"/>
      <point x="377" y="49" type="curve" smooth="yes"/>
      <point x="258" y="49" type="line" smooth="yes"/>
      <point x="196" y="49"/>
      <point x="149" y="71"/>
      <point x="149" y="126" type="curve" smooth="yes"/>
      <point x="149" y="132"/>
      <point x="150" y="139"/>
    </contour>
    <contour>
      <point x="92" y="140" type="line" smooth="yes"/>
      <point x="91" y="130"/>
      <point x="90" y="120"/>
      <point x="90" y="111" type="curve" smooth="yes"/>
      <point x="90" y="32"/>
      <point x="149" y="-1"/>
      <point x="244" y="-1" type="curve" smooth="yes"/>
      <point x="379" y="-1" type="line" smooth="yes"/>
      <point x="478" y="-1"/>
      <point x="546" y="41"/>
      <point x="562" y="140" type="curve" smooth="yes"/>
      <point x="580" y="254" type="line" smooth="yes"/>
      <point x="581" y="264"/>
      <point x="583" y="273"/>
      <point x="583" y="282" type="curve" smooth="yes"/>
      <point x="583" y="330"/>
      <point x="559" y="371"/>
      <point x="509" y="380" type="curve"/>
      <point x="562" y="396"/>
      <point x="597" y="453"/>
      <point x="605" y="501" type="curve" smooth="yes"/>
      <point x="618" y="586" type="line" smooth="yes"/>
      <point x="621" y="602"/>
      <point x="622" y="616"/>
      <point x="622" y="628" type="curve" smooth="yes"/>
      <point x="622" y="707"/>
      <point x="575" y="739"/>
      <point x="497" y="739" type="curve" smooth="yes"/>
      <point x="359" y="739" type="line" smooth="yes"/>
      <point x="269" y="739"/>
      <point x="195" y="696"/>
      <point x="177" y="586" type="curve" smooth="yes"/>
      <point x="164" y="501" type="line" smooth="yes"/>
      <point x="162" y="491"/>
      <point x="161" y="481"/>
      <point x="161" y="471" type="curve" smooth="yes"/>
      <point x="161" y="430"/>
      <point x="179" y="393"/>
      <point x="226" y="371" type="curve"/>
      <point x="185" y="362"/>
      <point x="121" y="323"/>
      <point x="109" y="247" type="curve" smooth="yes"/>
    </contour>
  </outline>
</glyph>
<glyph name="eight.tosf" format="1">
  <advance width="609"/>
  <outline>
    <contour>
      <point x="233" y="498" type="curve" smooth="yes"/>
      <point x="245" y="575" type="line" smooth="yes"/>
      <point x="258" y="654"/>
      <point x="295" y="689"/>
      <point x="374" y="689" type="curve" smooth="yes"/>
      <point x="488" y="689" type="line" smooth="yes"/>
      <point x="543" y="689"/>
      <point x="572" y="668"/>
      <point x="572" y="612" type="curve" smooth="yes"/>
      <point x="572" y="601"/>
      <point x="571" y="589"/>
      <point x="569" y="575" type="curve" smooth="yes"/>
      <point x="557" y="498" type="line" smooth="yes"/>
      <point x="550" y="454"/>
      <point x="513" y="400"/>
      <point x="436" y="400" type="curve" smooth="yes"/>
      <point x="327" y="400" type="line" smooth="yes"/>
      <point x="261" y="400"/>
      <point x="232" y="434"/>
      <point x="232" y="479" type="curve" smooth="yes"/>
      <point x="232" y="485"/>
      <point x="232" y="491"/>
    </contour>
    <contour>
      <point x="164" y="146" type="curve" smooth="yes"/>
      <point x="180" y="247" type="line" smooth="yes"/>
      <point x="192" y="324"/>
      <point x="276" y="349"/>
      <point x="319" y="349" type="curve" smooth="yes"/>
      <point x="428" y="349" type="line" smooth="yes"/>
      <point x="502" y="349"/>
      <point x="533" y="328"/>
      <point x="533" y="276" type="curve" smooth="yes"/>
      <point x="533" y="267"/>
      <point x="532" y="258"/>
      <point x="530" y="247" type="curve" smooth="yes"/>
      <point x="514" y="146" type="line" smooth="yes"/>
      <point x="504" y="82"/>
      <point x="462" y="49"/>
      <point x="386" y="49" type="curve" smooth="yes"/>
      <point x="272" y="49" type="line" smooth="yes"/>
      <point x="209" y="49"/>
      <point x="163" y="71"/>
      <point x="163" y="127" type="curve" smooth="yes"/>
      <point x="163" y="132"/>
      <point x="163" y="139"/>
    </contour>
    <contour>
      <point x="105" y="140" type="line" smooth="yes"/>
      <point x="104" y="130"/>
      <point x="103" y="120"/>
      <point x="103" y="111" type="curve" smooth="yes"/>
      <point x="103" y="32"/>
      <point x="163" y="-1"/>
      <point x="257" y="-1" type="curve" smooth="yes"/>
      <point x="388" y="-1" type="line" smooth="yes"/>
      <point x="487" y="-1"/>
      <point x="555" y="41"/>
      <point x="571" y="140" type="curve" smooth="yes"/>
      <point x="590" y="254" type="line" smooth="yes"/>
      <point x="591" y="264"/>
      <point x="592" y="273"/>
      <point x="592" y="282" type="curve" smooth="yes"/>
      <point x="592" y="330"/>
      <point x="568" y="371"/>
      <point x="518" y="380" type="curve"/>
      <point x="571" y="396"/>
      <point x="606" y="453"/>
      <point x="614" y="501" type="curve" smooth="yes"/>
      <point x="627" y="586" type="line" smooth="yes"/>
      <point x="630" y="602"/>
      <point x="631" y="616"/>
      <point x="631" y="628" type="curve" smooth="yes"/>
      <point x="631" y="707"/>
      <point x="584" y="739"/>
      <point x="506" y="739" type="curve" smooth="yes"/>
      <point x="373" y="739" type="line" smooth="yes"/>
      <point x="282" y="739"/>
      <point x="208" y="696"/>
      <point x="190" y="586" type="curve" smooth="yes"/>
      <point x="177" y="501" type="line" smooth="yes"/>
      <point x="175" y="491"/>
      <point x="174" y="481"/>
      <point x="174" y="471" type="curve" smooth="yes"/>
      <point x="174" y="430"/>
      <point x="193" y="393"/>
      <point x="240" y="371" type="curve"/>
      <point x="198" y="362"/>
      <point x="135" y="323"/>
      <point x="122" y="247" type="curve" smooth="yes"/>
    </contour>
  </outline>
</glyph>
<glyph name="f.salt" format="1">
  <advance width="340"/>
  <outline>
    <contour>
      <point x="87" y="0" type="line"/>
      <point x="145" y="0" type="line"/>
      <point x="222" y="484" type="line"/>
      <point x="394" y="484" type="line"/>
      <point x="401" y="533" type="line"/>
      <point x="229" y="533" type="line"/>
      <point x="240" y="604" type="line" smooth="yes"/>
      <point x="253" y="680"/>
      <point x="274" y="720"/>
      <point x="355" y="720" type="curve" smooth="yes"/>
      <point x="446" y="720" type="line"/>
      <point x="453" y="761" type="line"/>
      <point x="427" y="765"/>
      <point x="400" y="769"/>
      <point x="354" y="769" type="curve" smooth="yes"/>
      <point x="239" y="769"/>
      <point x="199" y="708"/>
      <point x="182" y="602" type="curve" smooth="yes"/>
    </contour>
  </outline>
</glyph>
<glyph name="four.smcp" format="1">
  <advance width="502"/>
  <note>
    GF Latin Plus glyph
  </note>
  <outline>
    <contour>
      <point x="62" y="176" type="line"/>
      <point x="71" y="146" type="line"/>
      <point x="353" y="146" type="line"/>
      <point x="329" y="1" type="line"/>
      <point x="385" y="1" type="line"/>
      <point x="409" y="146" type="line"/>
      <point x="495" y="155" type="line"/>
      <point x="500" y="192" type="line"/>
      <point x="416" y="192" type="line"/>
      <point x="448" y="397" type="line"/>
      <point x="405" y="397" type="line"/>
      <point x="385" y="347" type="line"/>
      <point x="360" y="192" type="line"/>
      <point x="129" y="192" type="line"/>
      <point x="408" y="560" type="line"/>
      <point x="351" y="560" type="line"/>
    </contour>
  </outline>
</glyph>
<glyph name="four.tnum" format="1">
  <advance width="609"/>
  <outline>
    <contour>
      <point x="85" y="233" type="line"/>
      <point x="95" y="197" type="line"/>
      <point x="448" y="197" type="line"/>
      <point x="417" y="2" type="line"/>
      <point x="475" y="2" type="line"/>
      <point x="506" y="197" type="line"/>
      <point x="616" y="208" type="line"/>
      <point x="622" y="247" type="line"/>
      <point x="514" y="247" type="line"/>
      <point x="557" y="523" type="line"/>
      <point x="513" y="523" type="line"/>
      <point x="490" y="460" type="line"/>
      <point x="456" y="247" type="line"/>
      <point x="154" y="247" type="line"/>
      <point x="513" y="734" type="line"/>
      <point x="453" y="734" type="line"/>
    </contour>
  </outline>
</glyph>
<glyph name="franc.smcp" format="1">
  <advance width="516"/>
  <note>
    GF Latin Plus glyph
  </note>
  <outline>
    <contour>
      <point x="132" y="0" type="line"/>
      <point x="188" y="0" type="line"/>
      <point x="232" y="273" type="line"/>
      <point x="450" y="277" type="line"/>
      <point x="457" y="317" type="line"/>
      <point x="239" y="321" type="line"/>
      <point x="259" y="442" type="line" smooth="yes"/>
      <point x="266" y="488"/>
      <point x="296" y="511"/>
      <point x="340" y="511" type="curve" smooth="yes"/>
      <point x="521" y="511" type="line"/>
      <point x="528" y="553" type="line"/>
      <point x="510" y="555"/>
      <point x="346" y="560"/>
      <point x="336" y="560" type="curve" smooth="yes"/>
      <point x="278" y="561"/>
      <point x="216" y="534"/>
      <point x="204" y="452" type="curve" smooth="yes"/>
    </contour>
    <contour>
      <point x="80" y="112" type="line"/>
      <point x="149" y="109" type="line"/>
      <point x="205" y="109" type="line"/>
      <point x="422" y="112" type="line"/>
      <point x="427" y="148" type="line"/>
      <point x="213" y="152" type="line"/>
      <point x="157" y="152" type="line"/>
      <point x="86" y="148" type="line"/>
    </contour>
  </outline>
</glyph>
<glyph name="h.superior" format="1">
  <advance width="429"/>
  <note>
    GF Latin Plus glyph
  </note>
  <outline>
    <contour>
      <point x="97" y="280" type="line"/>
      <point x="147" y="280" type="line"/>
      <point x="196" y="590" type="line"/>
      <point x="245" y="617"/>
      <point x="283" y="632"/>
      <point x="339" y="632" type="curve" smooth="yes"/>
      <point x="385" y="632"/>
      <point x="413" y="614"/>
      <point x="413" y="566" type="curve" smooth="yes"/>
      <point x="414" y="557"/>
      <point x="413" y="545"/>
      <point x="411" y="531" type="curve" smooth="yes"/>
      <point x="371" y="280" type="line"/>
      <point x="421" y="280" type="line"/>
      <point x="461" y="536" type="line" smooth="yes"/>
      <point x="464" y="553"/>
      <point x="465" y="570"/>
      <point x="465" y="582" type="curve" smooth="yes"/>
      <point x="465" y="645"/>
      <point x="430" y="678"/>
      <point x="364" y="678" type="curve" smooth="yes"/>
      <point x="301" y="678"/>
      <point x="245" y="656"/>
      <point x="202" y="628" type="curve"/>
      <point x="236" y="841" type="line"/>
      <point x="187" y="841" type="line"/>
    </contour>
    <contour>
      <point x="286" y="905" type="move" name="top"/>
    </contour>
    <contour>
      <point x="239" y="169" type="move" name="bottom"/>
    </contour>
  </outline>
</glyph>
<glyph name="horncomb" format="1">
  <note>
    GF Latin Plus glyph
  </note>
  <outline>
    <contour>
      <point x="-266" y="499" type="line"/>
      <point x="-161" y="499" type="line" smooth="yes"/>
      <point x="-101" y="499"/>
      <point x="-39" y="534"/>
      <point x="-22" y="647" type="curve"/>
      <point x="-66" y="647" type="line"/>
      <point x="-78" y="561"/>
      <point x="-117" y="533"/>
      <point x="-164" y="533" type="curve" smooth="yes"/>
      <point x="-261" y="533" type="line"/>
    </contour>
    <contour>
      <point x="-244" y="650" type="move" name="_top"/>
    </contour>
  </outline>
</glyph>
<glyph name="liraTurkish.smcp" format="1">
  <advance width="516"/>
  <note>
    GF Latin Plus glyph
  </note>
  <outline>
    <contour>
      <point x="68" y="304" type="line"/>
      <point x="459" y="480" type="line"/>
      <point x="464" y="512" type="line"/>
      <point x="73" y="337" type="line"/>
    </contour>
    <contour>
      <point x="108" y="0" type="line"/>
      <point x="164" y="0" type="line" smooth="yes"/>
      <point x="349" y="0"/>
      <point x="477" y="52"/>
      <point x="509" y="259" type="curve"/>
      <point x="458" y="259" type="line"/>
      <point x="431" y="94"/>
      <point x="328" y="48"/>
      <point x="172" y="48" type="curve"/>
      <point x="253" y="560" type="line"/>
      <point x="197" y="560" type="line"/>
    </contour>
    <contour>
      <point x="49" y="185" type="line"/>
      <point x="439" y="360" type="line"/>
      <point x="445" y="392" type="line"/>
      <point x="54" y="217" type="line"/>
    </contour>
  </outline>
</glyph>
<glyph name="nine.tnum" format="1">
  <advance width="609"/>
  <outline>
    <contour>
      <point x="555" y="380" type="curve"/>
      <point x="351" y="380" type="line" smooth="yes"/>
      <point x="262" y="380"/>
      <point x="205" y="394"/>
      <point x="205" y="461" type="curve" smooth="yes"/>
      <point x="205" y="469"/>
      <point x="205" y="478"/>
      <point x="207" y="487" type="curve" smooth="yes"/>
      <point x="220" y="575" type="line" smooth="yes"/>
      <point x="235" y="665"/>
      <point x="293" y="685"/>
      <point x="357" y="685" type="curve" smooth="yes"/>
      <point x="456" y="685" type="line" smooth="yes"/>
      <point x="525" y="685"/>
      <point x="569" y="650"/>
      <point x="569" y="528" type="curve" smooth="yes"/>
      <point x="569" y="488"/>
      <point x="564" y="440"/>
    </contour>
    <contour>
      <point x="626" y="532" type="curve" smooth="yes"/>
      <point x="626" y="694"/>
      <point x="564" y="738"/>
      <point x="472" y="738" type="curve" smooth="yes"/>
      <point x="356" y="738" type="line" smooth="yes"/>
      <point x="265" y="738"/>
      <point x="183" y="697"/>
      <point x="164" y="582" type="curve" smooth="yes"/>
      <point x="148" y="479" type="line" smooth="yes"/>
      <point x="146" y="467"/>
      <point x="145" y="456"/>
      <point x="145" y="446" type="curve" smooth="yes"/>
      <point x="145" y="357"/>
      <point x="218" y="330"/>
      <point x="332" y="330" type="curve" smooth="yes"/>
      <point x="384" y="330"/>
      <point x="483" y="332"/>
      <point x="548" y="339" type="curve"/>
      <point x="509" y="142"/>
      <point x="411" y="48"/>
      <point x="292" y="48" type="curve" smooth="yes"/>
      <point x="124" y="48" type="line"/>
      <point x="117" y="4" type="line"/>
      <point x="169" y="0"/>
      <point x="243" y="-4"/>
      <point x="297" y="-4" type="curve" smooth="yes"/>
      <point x="502" y="-4"/>
      <point x="626" y="225"/>
    </contour>
  </outline>
</glyph>
<glyph name="p.superior" format="1">
  <advance width="423"/>
  <note>
    GF Latin Plus glyph
  </note>
  <outline>
    <contour>
      <point x="156" y="339" type="curve"/>
      <point x="202" y="633" type="line"/>
      <point x="325" y="634" type="line" smooth="yes"/>
      <point x="387" y="634"/>
      <point x="414" y="601"/>
      <point x="415" y="535" type="curve" smooth="yes"/>
      <point x="415" y="516"/>
      <point x="411" y="494"/>
      <point x="409" y="478" type="curve" smooth="yes"/>
      <point x="392" y="374"/>
      <point x="357" y="319"/>
      <point x="267" y="319" type="curve" smooth="yes"/>
      <point x="222" y="319"/>
      <point x="202" y="324"/>
    </contour>
    <contour>
      <point x="69" y="106" type="line"/>
      <point x="119" y="106" type="line"/>
      <point x="150" y="300" type="line"/>
      <point x="188" y="282"/>
      <point x="224" y="276"/>
      <point x="271" y="276" type="curve" smooth="yes"/>
      <point x="383" y="276"/>
      <point x="438" y="348"/>
      <point x="457" y="467" type="curve" smooth="yes"/>
      <point x="461" y="490"/>
      <point x="465" y="517"/>
      <point x="465" y="543" type="curve" smooth="yes"/>
      <point x="464" y="633"/>
      <point x="421" y="676"/>
      <point x="336" y="676" type="curve" smooth="yes"/>
      <point x="261" y="676"/>
      <point x="204" y="672"/>
      <point x="158" y="666" type="curve"/>
    </contour>
  </outline>
</glyph>
<glyph name="q.superior" format="1">
  <advance width="422"/>
  <note>
    GF Latin Plus glyph
  </note>
  <outline>
    <contour>
      <point x="165" y="480" type="curve" smooth="yes"/>
      <point x="182" y="587"/>
      <point x="221" y="638"/>
      <point x="330" y="634" type="curve" smooth="yes"/>
      <point x="332" y="634"/>
      <point x="417" y="630"/>
      <point x="419" y="629" type="curve"/>
      <point x="375" y="355" type="line"/>
      <point x="329" y="333"/>
      <point x="287" y="318"/>
      <point x="240" y="318" type="curve" smooth="yes"/>
      <point x="192" y="318"/>
      <point x="158" y="350"/>
      <point x="158" y="412" type="curve" smooth="yes"/>
      <point x="158" y="431"/>
      <point x="160" y="454"/>
    </contour>
    <contour>
      <point x="116" y="485" type="curve" smooth="yes"/>
      <point x="112" y="456"/>
      <point x="109" y="430"/>
      <point x="109" y="403" type="curve" smooth="yes"/>
      <point x="109" y="326"/>
      <point x="150" y="276"/>
      <point x="219" y="276" type="curve" smooth="yes"/>
      <point x="260" y="276"/>
      <point x="321" y="290"/>
      <point x="370" y="322" type="curve"/>
      <point x="336" y="106" type="line"/>
      <point x="385" y="106" type="line"/>
      <point x="474" y="661" type="line"/>
      <point x="440" y="669"/>
      <point x="379" y="676"/>
      <point x="327" y="676" type="curve" smooth="yes"/>
      <point x="192" y="676"/>
      <point x="137" y="616"/>
    </contour>
  </outline>
</glyph>
<glyph name="question.smcp" format="1">
  <advance width="453"/>
  <note>
    GF Latin Plus glyph
  </note>
  <outline>
    <contour>
      <point x="126" y="486" type="line"/>
      <point x="185" y="506"/>
      <point x="233" y="515"/>
      <point x="288" y="515" type="curve" smooth="yes"/>
      <point x="355" y="515"/>
      <point x="386" y="495"/>
      <point x="386" y="442" type="curve" smooth="yes"/>
      <point x="387" y="431"/>
      <point x="386" y="420"/>
      <point x="384" y="406" type="curve" smooth="yes"/>
      <point x="376" y="357" type="line" smooth="yes"/>
      <point x="364" y="287"/>
      <point x="324" y="267"/>
      <point x="232" y="267" type="curve" smooth="yes"/>
      <point x="194" y="267" type="line"/>
      <point x="177" y="159" type="line"/>
      <point x="221" y="159" type="line"/>
      <point x="231" y="226" type="line"/>
      <point x="361" y="227"/>
      <point x="416" y="267"/>
      <point x="431" y="356" type="curve" smooth="yes"/>
      <point x="440" y="409" type="line" smooth="yes"/>
      <point x="443" y="425"/>
      <point x="444" y="443"/>
      <point x="444" y="456" type="curve" smooth="yes"/>
      <point x="444" y="522"/>
      <point x="406" y="563"/>
      <point x="313" y="563" type="curve" smooth="yes"/>
      <point x="253" y="563"/>
      <point x="193" y="552"/>
      <point x="131" y="523" type="curve"/>
    </contour>
    <component base="period" xOffset="85"/>
  </outline>
</glyph>
<glyph name="r.superior" format="1">
  <advance width="293"/>
  <note>
    GF Latin Plus glyph
  </note>
  <outline>
    <contour>
      <point x="97" y="280" type="line"/>
      <point x="147" y="280" type="line"/>
      <point x="196" y="585" type="line"/>
      <point x="228" y="605"/>
      <point x="268" y="624"/>
      <point x="316" y="624" type="curve" smooth="yes"/>
      <point x="336" y="624"/>
      <point x="355" y="623"/>
      <point x="369" y="621" type="curve"/>
      <point x="377" y="671" type="line"/>
      <point x="364" y="675"/>
      <point x="346" y="676"/>
      <point x="326" y="676" type="curve" smooth="yes"/>
      <point x="276" y="676"/>
      <point x="234" y="652"/>
      <point x="201" y="624" type="curve"/>
      <point x="201" y="672" type="line"/>
      <point x="159" y="672" type="line"/>
    </contour>
    <contour>
      <point x="268" y="758" type="move" name="top"/>
    </contour>
    <contour>
      <point x="106" y="169" type="move" name="bottom"/>
    </contour>
  </outline>
</glyph>
<glyph name="ruble.smcp" format="1">
  <advance width="516"/>
  <note>
    GF Latin Plus glyph
  </note>
  <outline>
    <contour>
      <point x="156" y="92" type="line"/>
      <point x="415" y="92" type="line"/>
      <point x="420" y="124" type="line"/>
      <point x="163" y="124" type="line"/>
    </contour>
    <contour>
      <point x="41" y="92" type="line"/>
      <point x="152" y="92" type="line"/>
      <point x="156" y="124" type="line"/>
      <point x="45" y="124" type="line"/>
    </contour>
    <contour>
      <point x="204" y="261" type="line"/>
      <point x="244" y="512" type="line"/>
      <point x="358" y="512" type="line" smooth="yes"/>
      <point x="430" y="512"/>
      <point x="463" y="491"/>
      <point x="463" y="430" type="curve" smooth="yes"/>
      <point x="464" y="351"/>
      <point x="415" y="261"/>
      <point x="319" y="261" type="curve" smooth="yes"/>
    </contour>
    <contour>
      <point x="109" y="0" type="line"/>
      <point x="163" y="0" type="line"/>
      <point x="198" y="218" type="line"/>
      <point x="201" y="217"/>
      <point x="315" y="215"/>
      <point x="322" y="215" type="curve" smooth="yes"/>
      <point x="456" y="215"/>
      <point x="519" y="332"/>
      <point x="518" y="434" type="curve" smooth="yes"/>
      <point x="517" y="534"/>
      <point x="455" y="560"/>
      <point x="382" y="560" type="curve" smooth="yes"/>
      <point x="198" y="560" type="line"/>
    </contour>
    <contour>
      <point x="63" y="230" type="line"/>
      <point x="170" y="230" type="line"/>
      <point x="175" y="261" type="line"/>
      <point x="68" y="261" type="line"/>
    </contour>
  </outline>
</glyph>
<glyph name="rupeeIndian" format="1">
  <advance width="609"/>
  <note>
    GF Latin Plus glyph
  </note>
  <outline>
    <contour>
      <point x="321" y="698" type="line"/>
      <point x="689" y="698" type="line"/>
      <point x="695" y="734" type="line"/>
      <point x="327" y="734" type="line"/>
    </contour>
    <contour>
      <point x="138" y="499" type="line"/>
      <point x="658" y="499" type="line"/>
      <point x="664" y="536" type="line"/>
      <point x="145" y="536" type="line"/>
    </contour>
    <contour>
      <point x="167" y="682" type="line"/>
      <point x="376" y="682" type="line" smooth="yes"/>
      <point x="428" y="682"/>
      <point x="475" y="662"/>
      <point x="475" y="560" type="curve" smooth="yes"/>
      <point x="475" y="439"/>
      <point x="390" y="350"/>
      <point x="308" y="350" type="curve" smooth="yes"/>
      <point x="115" y="350" type="line"/>
      <point x="108" y="304" type="line"/>
      <point x="152" y="303"/>
      <point x="253" y="300"/>
      <point x="287" y="300" type="curve"/>
      <point x="391" y="0" type="line"/>
      <point x="452" y="0" type="line"/>
      <point x="346" y="304" type="line"/>
      <point x="445" y="324"/>
      <point x="533" y="432"/>
      <point x="533" y="565" type="curve" smooth="yes"/>
      <point x="533" y="710"/>
      <point x="449" y="734"/>
      <point x="376" y="734" type="curve" smooth="yes"/>
      <point x="176" y="734" type="line"/>
    </contour>
  </outline>
</glyph>
<glyph name="seven.smcp" format="1">
  <advance width="461"/>
  <note>
    GF Latin Plus glyph
  </note>
  <outline>
    <contour>
      <point x="126" y="507" type="line"/>
      <point x="431" y="507" type="line"/>
      <point x="137" y="0" type="line"/>
      <point x="202" y="0" type="line"/>
      <point x="506" y="531" type="line"/>
      <point x="491" y="560" type="line"/>
      <point x="134" y="560" type="line"/>
    </contour>
  </outline>
</glyph>
<glyph name="seven.tnum" format="1">
  <advance width="609"/>
  <outline>
    <contour>
      <point x="179" y="676" type="line"/>
      <point x="568" y="676" type="line"/>
      <point x="191" y="0" type="line"/>
      <point x="256" y="0" type="line"/>
      <point x="643" y="700" type="line"/>
      <point x="627" y="734" type="line"/>
      <point x="188" y="734" type="line"/>
    </contour>
  </outline>
</glyph>
<glyph name="three.smcp" format="1">
  <advance width="497"/>
  <note>
    GF Latin Plus glyph
  </note>
  <outline>
    <contour>
      <point x="151" y="517" type="line"/>
      <point x="320" y="517" type="line" smooth="yes"/>
      <point x="389" y="517"/>
      <point x="428" y="492"/>
      <point x="429" y="443" type="curve" smooth="yes"/>
      <point x="429" y="437"/>
      <point x="429" y="431"/>
      <point x="420" y="382" type="curve" smooth="yes"/>
      <point x="412" y="330"/>
      <point x="369" y="309"/>
      <point x="308" y="307" type="curve" smooth="yes"/>
      <point x="156" y="301" type="line"/>
      <point x="150" y="264" type="line"/>
      <point x="297" y="259" type="line" smooth="yes"/>
      <point x="346" y="257"/>
      <point x="398" y="238"/>
      <point x="398" y="187" type="curve" smooth="yes"/>
      <point x="399" y="182"/>
      <point x="396" y="162"/>
      <point x="390" y="133" type="curve" smooth="yes"/>
      <point x="376" y="62"/>
      <point x="321" y="43"/>
      <point x="251" y="43" type="curve" smooth="yes"/>
      <point x="54" y="43" type="line"/>
      <point x="49" y="5" type="line"/>
      <point x="100" y="-2"/>
      <point x="176" y="-5"/>
      <point x="261" y="-5" type="curve" smooth="yes"/>
      <point x="364" y="-5"/>
      <point x="432" y="41"/>
      <point x="445" y="127" type="curve" smooth="yes"/>
      <point x="450" y="159"/>
      <point x="454" y="181"/>
      <point x="454" y="190" type="curve" smooth="yes"/>
      <point x="454" y="251"/>
      <point x="402" y="277"/>
      <point x="373" y="283" type="curve"/>
      <point x="404" y="288"/>
      <point x="465" y="313"/>
      <point x="476" y="386" type="curve" smooth="yes"/>
      <point x="486" y="443"/>
      <point x="486" y="452"/>
      <point x="486" y="461" type="curve" smooth="yes"/>
      <point x="485" y="527"/>
      <point x="440" y="565"/>
      <point x="344" y="565" type="curve" smooth="yes"/>
      <point x="266" y="565"/>
      <point x="204" y="561"/>
      <point x="157" y="555" type="curve"/>
    </contour>
  </outline>
</glyph>
<glyph name="three.tosf" format="1">
  <advance width="609"/>
  <outline>
    <contour>
      <point x="181" y="484" type="line"/>
      <point x="370" y="484" type="line" smooth="yes"/>
      <point x="462" y="484"/>
      <point x="507" y="448"/>
      <point x="507" y="384" type="curve" smooth="yes"/>
      <point x="507" y="376"/>
      <point x="506" y="368"/>
      <point x="505" y="359" type="curve" smooth="yes"/>
      <point x="496" y="302" type="line" smooth="yes"/>
      <point x="485" y="228"/>
      <point x="427" y="200"/>
      <point x="351" y="197" type="curve" smooth="yes"/>
      <point x="183" y="190" type="line"/>
      <point x="177" y="148" type="line"/>
      <point x="345" y="141" type="line" smooth="yes"/>
      <point x="401" y="138"/>
      <point x="465" y="117"/>
      <point x="465" y="46" type="curve" smooth="yes"/>
      <point x="465" y="40"/>
      <point x="464" y="33"/>
      <point x="463" y="24" type="curve" smooth="yes"/>
      <point x="455" y="-28" type="line" smooth="yes"/>
      <point x="438" y="-130"/>
      <point x="363" y="-153"/>
      <point x="276" y="-153" type="curve" smooth="yes"/>
      <point x="53" y="-153" type="line"/>
      <point x="45" y="-197" type="line"/>
      <point x="103" y="-204"/>
      <point x="187" y="-208"/>
      <point x="284" y="-208" type="curve" smooth="yes"/>
      <point x="411" y="-208"/>
      <point x="495" y="-148"/>
      <point x="513" y="-37" type="curve" smooth="yes"/>
      <point x="522" y="20" type="line" smooth="yes"/>
      <point x="523" y="30"/>
      <point x="524" y="39"/>
      <point x="524" y="48" type="curve" smooth="yes"/>
      <point x="524" y="129"/>
      <point x="457" y="162"/>
      <point x="423" y="169" type="curve"/>
      <point x="459" y="175"/>
      <point x="539" y="207"/>
      <point x="554" y="304" type="curve" smooth="yes"/>
      <point x="564" y="369" type="line" smooth="yes"/>
      <point x="567" y="381"/>
      <point x="568" y="392"/>
      <point x="568" y="403" type="curve" smooth="yes"/>
      <point x="568" y="487"/>
      <point x="512" y="539"/>
      <point x="396" y="539" type="curve" smooth="yes"/>
      <point x="307" y="539"/>
      <point x="238" y="534"/>
      <point x="188" y="528" type="curve"/>
    </contour>
  </outline>
</glyph>
<glyph name="two.tnum" format="1">
  <advance width="609"/>
  <outline>
    <contour>
      <point x="205" y="686" type="line"/>
      <point x="400" y="686" type="line" smooth="yes"/>
      <point x="521" y="686"/>
      <point x="557" y="643"/>
      <point x="557" y="583" type="curve" smooth="yes"/>
      <point x="557" y="515"/>
      <point x="516" y="415"/>
      <point x="395" y="314" type="curve" smooth="yes"/>
      <point x="75" y="48" type="line"/>
      <point x="68" y="0" type="line"/>
      <point x="553" y="0" type="line"/>
      <point x="562" y="54" type="line"/>
      <point x="157" y="54" type="line"/>
      <point x="433" y="283" type="line" smooth="yes"/>
      <point x="569" y="398"/>
      <point x="616" y="511"/>
      <point x="616" y="598" type="curve" smooth="yes"/>
      <point x="616" y="682"/>
      <point x="566" y="740"/>
      <point x="423" y="740" type="curve" smooth="yes"/>
      <point x="348" y="740"/>
      <point x="272" y="734"/>
      <point x="212" y="729" type="curve"/>
    </contour>
  </outline>
</glyph>
<glyph name="won.smcp" format="1">
  <advance width="516"/>
  <note>
    GF Latin Plus glyph
  </note>
  <outline>
    <contour>
      <point x="139" y="560" type="line"/>
      <point x="114" y="0" type="line"/>
      <point x="164" y="0" type="line"/>
      <point x="315" y="375" type="line"/>
      <point x="348" y="0" type="line"/>
      <point x="396" y="0" type="line"/>
      <point x="550" y="560" type="line"/>
      <point x="499" y="560" type="line"/>
      <point x="375" y="118" type="line"/>
      <point x="345" y="459" type="line"/>
      <point x="315" y="459" type="line"/>
      <point x="173" y="118" type="line"/>
      <point x="190" y="560" type="line"/>
    </contour>
    <contour>
      <point x="70" y="355" type="line"/>
      <point x="152" y="355" type="line"/>
      <point x="157" y="387" type="line"/>
      <point x="75" y="387" type="line"/>
    </contour>
    <contour>
      <point x="482" y="355" type="line"/>
      <point x="552" y="355" type="line"/>
      <point x="557" y="387" type="line"/>
      <point x="485" y="387" type="line"/>
    </contour>
    <contour>
      <point x="42" y="179" type="line"/>
      <point x="156" y="179" type="line"/>
      <point x="152" y="211" type="line"/>
      <point x="48" y="211" type="line"/>
    </contour>
    <contour>
      <point x="421" y="179" type="line"/>
      <point x="524" y="179" type="line"/>
      <point x="529" y="211" type="line"/>
      <point x="426" y="211" type="line"/>
    </contour>
  </outline>
</glyph>
<glyph name="yen.smcp" format="1">
  <advance width="509"/>
  <note>
    GF Latin Plus glyph
  </note>
  <outline>
    <contour>
      <point x="76" y="101" type="line"/>
      <point x="440" y="101" type="line"/>
      <point x="445" y="133" type="line"/>
      <point x="81" y="133" type="line"/>
    </contour>
    <contour>
      <point x="91" y="196" type="line"/>
      <point x="455" y="196" type="line"/>
      <point x="460" y="228" type="line"/>
      <point x="96" y="228" type="line"/>
    </contour>
    <component base="Y.smcp" xOffset="-9"/>
  </outline>
</glyph>
<glyph name="z.superior" format="1">
  <advance width="374"/>
  <note>
    GF Latin Plus glyph
  </note>
  <outline>
    <contour>
      <point x="86" y="281" type="line"/>
      <point x="383" y="281" type="line"/>
      <point x="383" y="281"/>
      <point x="391" y="321"/>
      <point x="390" y="322" type="curve"/>
      <point x="150" y="322" type="line"/>
      <point x="428" y="633" type="line"/>
      <point x="433" y="672" type="line"/>
      <point x="138" y="672" type="line"/>
      <point x="131" y="630" type="line"/>
      <point x="371" y="630" type="line"/>
      <point x="92" y="319" type="line"/>
    </contour>
    <contour>
      <point x="298" y="757" type="move" name="top"/>
    </contour>
    <contour>
      <point x="206" y="169" type="move" name="bottom"/>
    </contour>
  </outline>
</glyph>
<glyph name="zero.tnum" format="1">
  <advance width="609"/>
  <outline>
    <contour>
      <point x="151" y="175" type="curve" smooth="yes"/>
      <point x="212" y="564" type="line" smooth="yes"/>
      <point x="225" y="643"/>
      <point x="282" y="688"/>
      <point x="360" y="688" type="curve" smooth="yes"/>
      <point x="470" y="688" type="line" smooth="yes"/>
      <point x="542" y="688"/>
      <point x="578" y="656"/>
      <point x="578" y="594" type="curve" smooth="yes"/>
      <point x="578" y="585"/>
      <point x="578" y="575"/>
      <point x="576" y="564" type="curve" smooth="yes"/>
      <point x="515" y="175" type="line" smooth="yes"/>
      <point x="502" y="98"/>
      <point x="458" y="51"/>
      <point x="368" y="51" type="curve" smooth="yes"/>
      <point x="261" y="51" type="line" smooth="yes"/>
      <point x="191" y="51"/>
      <point x="148" y="84"/>
      <point x="148" y="147" type="curve" smooth="yes"/>
      <point x="148" y="156"/>
      <point x="149" y="165"/>
    </contour>
    <contour>
      <point x="92" y="169" type="line" smooth="yes"/>
      <point x="90" y="155"/>
      <point x="89" y="142"/>
      <point x="89" y="130" type="curve" smooth="yes"/>
      <point x="89" y="37"/>
      <point x="155" y="-1"/>
      <point x="243" y="-1" type="curve" smooth="yes"/>
      <point x="371" y="-1" type="line" smooth="yes"/>
      <point x="475" y="-1"/>
      <point x="552" y="49"/>
      <point x="572" y="169" type="curve" smooth="yes"/>
      <point x="634" y="568" type="line" smooth="yes"/>
      <point x="637" y="582"/>
      <point x="638" y="596"/>
      <point x="638" y="608" type="curve" smooth="yes"/>
      <point x="638" y="687"/>
      <point x="594" y="740"/>
      <point x="489" y="740" type="curve" smooth="yes"/>
      <point x="361" y="740" type="line" smooth="yes"/>
      <point x="259" y="740"/>
      <point x="173" y="682"/>
      <point x="155" y="568" type="curve" smooth="yes"/>
    </contour>
  </outline>
</glyph>
<glyph name="zero.zero" format="1">
  <advance width="658"/>
  <note>
    GF Latin Plus glyph
  </note>
  <outline>
    <contour>
      <point x="578" y="695" type="line"/>
      <point x="158" y="48" type="line"/>
      <point x="197" y="48" type="line"/>
      <point x="618" y="695" type="line"/>
    </contour>
    <component base="zero"/>
  </outline>
</glyph>
